<svg id="Sky" xmlns="http://www.w3.org/2000/svg" viewBox="0 0 1600 1000"><defs><style>.cls-1, .cls-2, .cls-20 { fill: none; } .cls-2, .cls-22, .cls-23, .cls-24 { stroke: #fff; } .cls-2 { stroke-width: 2px; } .cls-3 { fill: #1891c6; } .cls-4 { clip-path: url(#clip-path); } .cls-5 { fill: #333; } .cls-6 { fill: #1d5c2e; } .cls-7 { fill: #29793c; } .cls-8 { fill: #f2f2f2; } .cls-9 { fill: #e0e0e0; } .cls-10 { fill: #fff; } .cls-11 { fill: #289548; } .cls-12 { fill: #e0e0df; } .cls-13 { fill: #f7b848; } .cls-14 { fill: #f7d169; } .cls-15 { fill: #dda640; } .cls-16 { fill: #cfd0d0; } .cls-17 { fill: #f4d798; } .cls-18 { fill: #ea3f5a; } .cls-19 { fill: #1c92c7; } .cls-20 { stroke: #333; } .cls-20, .cls-22, .cls-23, .cls-24 { stroke-miterlimit: 10; } .cls-21 { fill: #0a7fc0; } .cls-22 { fill: url(#Grid_1_pica_Lines); } .cls-23 { fill: url(#Grid_1_pica_Lines-3); } .cls-24 { fill: url(#Grid_1_pica_Lines-5); } .cls-25 { fill: #93733a; } .cls-26 { clip-path: url(#clip-path-2); } .cls-27 { clip-path: url(#clip-path-3); } .cls-28 { clip-path: url(#clip-path-4); } .cls-29 { clip-path: url(#clip-path-5); } .cls-30 { clip-path: url(#clip-path-6); } .cls-31 { clip-path: url(#clip-path-7); } .cls-32 { clip-path: url(#clip-path-8); } .cls-33 { clip-path: url(#clip-path-9); } .cls-34 { clip-path: url(#clip-path-10); } .cls-35 { clip-path: url(#clip-path-11); } .cls-36 { clip-path: url(#clip-path-12); } .cls-37 { clip-path: url(#clip-path-13); } .cls-38 { clip-path: url(#clip-path-14); } .cls-39 { clip-path: url(#clip-path-15); } .cls-40 { clip-path: url(#clip-path-16); } .cls-41 { clip-path: url(#clip-path-17); } .cls-42 { clip-path: url(#clip-path-18); } .cls-43 { clip-path: url(#clip-path-19); } .cls-44 { clip-path: url(#clip-path-20); } .cls-45 { clip-path: url(#clip-path-21); } .cls-46 { clip-path: url(#clip-path-22); } .cls-47 { clip-path: url(#clip-path-23); } .cls-48 { clip-path: url(#clip-path-24); } .cls-49 { clip-path: url(#clip-path-25); } .cls-50 { clip-path: url(#clip-path-26); } .cls-51 { clip-path: url(#clip-path-27); } .cls-52 { clip-path: url(#clip-path-28); } .cls-53 { clip-path: url(#clip-path-29); } .cls-54 { clip-path: url(#clip-path-30); } .cls-55 { clip-path: url(#clip-path-31); } .cls-56 { clip-path: url(#clip-path-32); } .cls-57 { clip-path: url(#clip-path-33); } .cls-58 { fill: #3e87b4; }</style><clipPath id="clip-path"><path class="cls-1" d="M0 0h1600v1000H0z"/></clipPath><pattern id="Grid_1_pica_Lines" data-name="Grid 1 pica Lines" width="72" height="72" patternTransform="matrix(.1 -.1 .1 .1 6 35.2)" patternUnits="userSpaceOnUse" viewBox="0 0 72 72"><path class="cls-1" d="M0 0h72v72H0z"/><path class="cls-2" d="M6 71.8v72.5M30 71.8v72.5M54 71.8v72.5M18 71.8v72.5M42 71.8v72.5M66 71.8v72.5"/><g><path class="cls-2" d="M71.8 66h72.5M71.8 42h72.5M71.8 18h72.5M71.8 54h72.5M71.8 30h72.5M71.8 6h72.5"/></g><g><path class="cls-2" d="M6-.3v72.6M30-.3v72.6M54-.3v72.6M-.3 66h72.6M-.3 42h72.6M-.3 18h72.6M-.3 54h72.6M-.3 30h72.6M-.3 6h72.6M18-.3v72.6M42-.3v72.6M66-.3v72.6"/></g><g><path class="cls-2" d="M-72.3 66H.3M-72.3 42H.3M-72.3 18H.3M-72.3 54H.3M-72.3 30H.3M-72.3 6H.3"/></g><g><path class="cls-2" d="M6-72.3V.3M30-72.3V.3M54-72.3V.3M18-72.3V.3M42-72.3V.3M66-72.3V.3"/></g></pattern><pattern id="Grid_1_pica_Lines-3" data-name="Grid 1 pica Lines" width="72" height="72" patternTransform="matrix(.1 -.1 .1 .1 30.2 35.2)" patternUnits="userSpaceOnUse" viewBox="0 0 72 72"><path class="cls-1" d="M0 0h72v72H0z"/><path class="cls-2" d="M6 71.8v72.5M30 71.8v72.5M54 71.8v72.5M18 71.8v72.5M42 71.8v72.5M66 71.8v72.5"/><g><path class="cls-2" d="M71.8 66h72.5M71.8 42h72.5M71.8 18h72.5M71.8 54h72.5M71.8 30h72.5M71.8 6h72.5"/></g><g><path class="cls-2" d="M6-.3v72.6M30-.3v72.6M54-.3v72.6M-.3 66h72.6M-.3 42h72.6M-.3 18h72.6M-.3 54h72.6M-.3 30h72.6M-.3 6h72.6M18-.3v72.6M42-.3v72.6M66-.3v72.6"/></g><g><path class="cls-2" d="M-72.3 66H.3M-72.3 42H.3M-72.3 18H.3M-72.3 54H.3M-72.3 30H.3M-72.3 6H.3"/></g><g><path class="cls-2" d="M6-72.3V.3M30-72.3V.3M54-72.3V.3M18-72.3V.3M42-72.3V.3M66-72.3V.3"/></g></pattern><pattern id="Grid_1_pica_Lines-5" data-name="Grid 1 pica Lines" width="72" height="72" patternTransform="matrix(.1 -.1 .1 .1 54.4 35.2)" patternUnits="userSpaceOnUse" viewBox="0 0 72 72"><path class="cls-1" d="M0 0h72v72H0z"/><path class="cls-2" d="M6 71.8v72.5M30 71.8v72.5M54 71.8v72.5M18 71.8v72.5M42 71.8v72.5M66 71.8v72.5"/><g><path class="cls-2" d="M71.8 66h72.5M71.8 42h72.5M71.8 18h72.5M71.8 54h72.5M71.8 30h72.5M71.8 6h72.5"/></g><g><path class="cls-2" d="M6-.3v72.6M30-.3v72.6M54-.3v72.6M-.3 66h72.6M-.3 42h72.6M-.3 18h72.6M-.3 54h72.6M-.3 30h72.6M-.3 6h72.6M18-.3v72.6M42-.3v72.6M66-.3v72.6"/></g><g><path class="cls-2" d="M-72.3 66H.3M-72.3 42H.3M-72.3 18H.3M-72.3 54H.3M-72.3 30H.3M-72.3 6H.3"/></g><g><path class="cls-2" d="M6-72.3V.3M30-72.3V.3M54-72.3V.3M18-72.3V.3M42-72.3V.3M66-72.3V.3"/></g></pattern><clipPath id="clip-path-2"><path class="cls-1" d="M1186 955a34.5 34.5 0 0 1 1.6 5.4 32.3 32.3 0 0 1 .7 6.8v41.2H1600V955h-414z"/></clipPath><clipPath id="clip-path-3"><path class="cls-1" d="M1522 898.5l36.3-36.3 36.2 36.3-36.2 36.2z"/></clipPath><clipPath id="clip-path-4"><path class="cls-1" d="M1558.3 934.7l36.3-36.2 36.2 36.2-36.2 36.3z"/></clipPath><clipPath id="clip-path-5"><path class="cls-1" d="M1594.5 971l36.3-36.4L1667 971 1631 1007z"/></clipPath><clipPath id="clip-path-6"><path class="cls-1" d="M1449.5 898.5l36.2-36.3 36.3 36.3-36.3 36.2z"/></clipPath><clipPath id="clip-path-7"><path class="cls-1" d="M1485.8 934.7l36.3-36.3 36.3 36.3L1522 971z"/></clipPath><clipPath id="clip-path-8"><path class="cls-1" d="M1522 971l36.2-36.3 36.3 36.3-36.3 36.3z"/></clipPath><clipPath id="clip-path-9"><path class="cls-1" d="M1558.3 1007.2l36.3-36.2 36.2 36.2-36.2 36.3z"/></clipPath><clipPath id="clip-path-10"><path class="cls-1" d="M1377 898.4l36.2-36.2 36.3 36.2-36.3 36.3z"/></clipPath><clipPath id="clip-path-11"><path class="cls-1" d="M1413.3 934.7l36.3-36.3 36.2 36.3-36.2 36.3z"/></clipPath><clipPath id="clip-path-12"><path class="cls-1" d="M1449.5 971l36.2-36.3L1522 971l-36.3 36.2z"/></clipPath><clipPath id="clip-path-13"><path class="cls-1" d="M1485.8 1007.2L1522 971l36.3 36.2-36.3 36.3z"/></clipPath><clipPath id="clip-path-14"><path class="cls-1" d="M1522 1043.6l36.3-36.3 36.3 36.3-36.3 36.2z"/></clipPath><clipPath id="clip-path-15"><path class="cls-1" d="M1304.5 898.4l36.2-36.2 36.3 36.2-36.3 36.3z"/></clipPath><clipPath id="clip-path-16"><path class="cls-1" d="M1340.7 934.8l36.3-36.3 36.3 36.3L1377 971z"/></clipPath><clipPath id="clip-path-17"><path class="cls-1" d="M1377 971l36.2-36.3 36.3 36.2-36.3 36.2z"/></clipPath><clipPath id="clip-path-18"><path class="cls-1" d="M1413.3 1007.2l36.2-36.3 36.3 36.2-36.3 36.3z"/></clipPath><clipPath id="clip-path-19"><path class="cls-1" d="M1449.5 1043.5l36.3-36.2 36.3 36.2-36.2 36.3z"/></clipPath><clipPath id="clip-path-20"><path class="cls-1" d="M1232 898.5l36.2-36.3 36.2 36.3-36.2 36.3z"/></clipPath><clipPath id="clip-path-21"><path class="cls-1" d="M1268.2 934.7l36.3-36.2 36.2 36.2-36.2 36.3z"/></clipPath><clipPath id="clip-path-22"><path class="cls-1" d="M1304.4 971l36.3-36.3L1377 971l-36.3 36.2z"/></clipPath><clipPath id="clip-path-23"><path class="cls-1" d="M1340.7 1007.3L1377 971l36.2 36.3-36.2 36.2z"/></clipPath><clipPath id="clip-path-24"><path class="cls-1" d="M1377 1043.5l36.3-36.3 36.3 36.3-36.3 36.3z"/></clipPath><clipPath id="clip-path-25"><path class="cls-1" d="M1195.7 934.7l36.3-36.2 36.2 36.2L1232 971z"/></clipPath><clipPath id="clip-path-26"><path class="cls-1" d="M1232 971l36-36.3 36.4 36.3-36.3 36.3z"/></clipPath><clipPath id="clip-path-27"><path class="cls-1" d="M1268.2 1007.2l36.3-36.2 36.2 36.2-36.2 36.3z"/></clipPath><clipPath id="clip-path-28"><path class="cls-1" d="M1304.5 1043.5l36.3-36.3 36.2 36.3-36.2 36.3z"/></clipPath><clipPath id="clip-path-29"><path class="cls-1" d="M1159.4 971l36.2-36.3L1232 971l-36.4 36.2z"/></clipPath><clipPath id="clip-path-30"><path class="cls-1" d="M1195.7 1007.2L1232 971l36.2 36.2-36.2 36.3z"/></clipPath><clipPath id="clip-path-31"><path class="cls-1" d="M1232 1043.6l36.2-36.3 36.3 36.3-36.3 36.2z"/></clipPath><clipPath id="clip-path-32"><path class="cls-1" d="M1123.2 1007.2l36.2-36.3 36.3 36.2-36.3 36.3z"/></clipPath><clipPath id="clip-path-33"><path class="cls-1" d="M1159.4 1043.5l36.3-36.2 36.3 36.2-36.3 36.3z"/></clipPath></defs><title>pwa-rocks</title><g class="cls-4"><path class="cls-5" d="M876.3 762.4h-.5v-2c18.2.2 151.8-13.3 165.6-18.6l.7 1.8c-13.6 5.3-145.4 18.8-165.7 18.8z"/><path class="cls-6" d="M906.6 828.3c0-33-22-71-31-71.4-8 .2-30.6 38.3-30.6 71.3h61.6z"/><path class="cls-7" d="M1121.5 731a51 51 0 0 0-51 51v51.3h102V782a51 51 0 0 0-51-51z"/><path class="cls-6" d="M1073.5 808.5c0-33-21-71-31-71-7 0-30.5 38-30.5 71h61.5z"/><path class="cls-8" d="M1114.8 700.6h1.8v16.6h-1.8z"/><path class="cls-9" d="M1116.6 700.6h1.8v16.6h-1.8z"/><path class="cls-8" d="M1118.5 700.6h1.8v16.6h-1.8z"/><path class="cls-9" d="M1120.3 700.6h1.8v16.6h-1.7z"/><path class="cls-8" d="M1122 700.6h1.8v16.6h-1.8z"/><path class="cls-9" d="M1124 700.6h1.7v16.6h-1.8z"/><path class="cls-8" d="M1125.7 700.6h1.8v16.6h-1.8z"/><path class="cls-9" d="M1127.5 700.6h1.8v16.6h-1.8z"/><path class="cls-10" d="M1103.7 673l3.7 3.8 6.8 3.4V701l8.6 2.2-5.5-22.6 1.3.2 8 23.3 3.4 1V679.8l1.7-1 3.4-1.5 5-3.8.6-1.7-37 1z"/><path class="cls-8" d="M1126 670.2h-26.5v3l4 .6h37.2l3.8-.5v-3H1126z"/><path class="cls-10" d="M1144.6 672.6c1.5 0 6.8-.7 6.8-2.4h-6.8v2.4z"/><path class="cls-9" d="M1126 670.2v-7a3.7 3.7 0 0 0-7.5 0v7h7.4z"/><path class="cls-8" d="M1117 679.6l5.8 23.6 3.7 1-8.2-24a7.3 7.3 0 0 1-1.3-.6zM1111 717.3h22.2v2.4H1111z"/><path class="cls-9" d="M1113.6 681c-3.3-1.3-6.5-7.8-7.2-10.8h1c.5 1.3 3.2 7 6.5 9zM1131 680.6c3.2-1.7 6-7.6 6.7-10.4h-1c-.4 1-2.8 6-5.6 8.3v2zM1126 676c-5.2-.4-8.4-4.5-8.7-5.8h4c.2 1 1.7 3 4.6 3.5v2.3z"/><path class="cls-8" d="M1126.5 696.5v3l4.2-.3V698l-4.2-1.5z"/><path class="cls-9" d="M1126 670.2v26.2h.5l4.2 1.5h.4v-27.8h-5zM1135.3 737.4h-26.5l1-17.8h24.5l1 17.8zM1111 678.8a10.8 10.8 0 0 1-9-8.6h1.2c.6 1.3 3.4 6 6.2 6.6a16.7 16.7 0 0 0 1.5 2zM1133.2 678.8a10.8 10.8 0 0 0 9-8.6h-1.3c-.7 1.3-3.5 6-6.3 6.6a13.6 13.6 0 0 1-1.5 2zM1113.6 693.8l4-2-4-.7v2.8z"/><path class="cls-8" d="M1116 678.8a9.3 9.3 0 0 1-1.8-2l-2 14 1.4.2 4 1h.3z"/><path class="cls-9" d="M1114.6 670.2h-2.5a13.8 13.8 0 0 0 2.2 6.6 9.3 9.3 0 0 0 1.7 2 7.7 7.7 0 0 0 1 .8 7.3 7.3 0 0 0 1.4.6c2 .7 4.4.6 7.5-.8v-2.2c-9 1-11-4.3-11.4-7z"/><path class="cls-8" d="M1119.8 670.2v-2.4h4.8v2.4h-4.8z"/><path class="cls-10" d="M1125 668a3.7 3.7 0 0 1-5.6 0v-4.4l2.8-2.4 3 2.4v4.4zM1099.5 672.6v-2.4h-6.8c0 1.7 5.3 2.4 6.8 2.4z"/><g><path class="cls-11" d="M1059.7 779.6c-78 0-140.5 64-140.5 141.4v51h281v-51c0-77.5-62.4-141.4-140.5-141.4z"/><path class="cls-7" d="M975.3 884a84.7 84.7 0 0 0-169.3 0v88h169.5z"/><path class="cls-6" d="M1019.2 940.3C1017.8 882 985.7 834 971 833.6c-14.7.4-46.4 48.3-47.7 106.7v31.8h96v-31.7z"/></g><g><path class="cls-10" d="M326.3 785.8h-129v54.6h6.4V812c0-7.8 5-14 12.7-14s12.7 6.2 12.7 14v28.4h6.5V812c0-7.8 5-14 12.7-14s12.8 6.3 12.8 14v28.4h6.4V812c0-7.8 5-14 12.7-14s12.8 6.2 12.8 14v28.4h6.4V812c0-7.8 5-14 12.7-14s12.7 6.2 12.7 14v28.4h6.3V812c0-7.8 5-14 12.7-14s12.8 6.2 12.8 14v28.4h6.4V812c0-7.8 5-14 12.6-14s12.7 6.2 12.7 14v28.4h6.4V812c0-7.8 5-14 12.7-14s12.8 6.2 12.8 14v28.4h6.4V812c0-7.8 5-14 12.7-14s12.7 6.2 12.7 14v28.4h6.4v-54.6h-132z"/><circle class="cls-12" cx="232.4" cy="798.2" r="3.1"/><circle class="cls-12" cx="264.2" cy="798.2" r="3.1"/><circle class="cls-12" cx="295.9" cy="798.2" r="3.1"/><circle class="cls-12" cx="359.7" cy="798.2" r="3.1"/><circle class="cls-12" cx="391.7" cy="798.2" r="3.1"/><circle class="cls-12" cx="423.3" cy="798.2" r="3.1"/><circle class="cls-12" cx="328" cy="798.2" r="3.1"/><path class="cls-10" d="M581 785.8H452v54.6h6.4V812c0-7.8 5-14 12.8-14s12.7 6.2 12.7 14v28.4h6.3V812c0-7.8 5-14 12.7-14s12.7 6.2 12.7 14v28.4h6.4V812c0-7.8 5-14 12.8-14s12.8 6.2 12.8 14v28.4h6.3V812c0-7.8 5-14 12.7-14s12.7 6.2 12.7 14v28.4h6.3V812c0-7.8 5-14 12.8-14s12.7 6.2 12.7 14v28.4h6.4V812c0-7.8 5-14 12.7-14s12.8 6.2 12.8 14v28.4h6.4V812c0-7.8 5-14 12.8-14s12.8 6.2 12.8 14v28.4h6.4V812c0-7.8 5-14 12.7-14s13 6.2 13 14v28.4h6.2v-54.6h-132z"/><circle class="cls-12" cx="487.2" cy="798.2" r="3.1"/><circle class="cls-12" cx="518.9" cy="798.2" r="3.1"/><circle class="cls-12" cx="550.7" cy="798.2" r="3.1"/><circle class="cls-12" cx="614.4" cy="798.2" r="3.1"/><circle class="cls-12" cx="646.4" cy="798.2" r="3.1"/><circle class="cls-12" cx="678" cy="798.2" r="3.1"/><circle class="cls-12" cx="582.7" cy="798.2" r="3.1"/><circle class="cls-12" cx="455.2" cy="798.2" r="3.1"/><path class="cls-8" d="M197.3 787h2v4h-2zM203.3 787h2v2h-2zM209.4 787h2v4h-2zM215.4 787h2v2h-2zM221.4 787h2v4h-2zM227.4 787h2v2h-2zM233.4 787h2v4h-2zM239.5 787h2v2h-2zM245.5 787h2v4h-2zM251.5 787h2v2h-2zM257.5 787h2v4h-2zM263.6 787h2v2h-2zM269.6 787h2v4h-2zM275.6 787h2v2h-2zM281.6 787h2v4h-2zM287.6 787h2v2h-2zM293.7 787h2v4h-2zM299.7 787h2v2h-2zM305.7 787h2v4h-2zM311.7 787h2v2h-2zM318.8 787h2v4h-2zM324.8 787h2v2h-2zM330.8 787h2v4h-2zM336.8 787h2v2h-2zM343 787h2v4h-2zM349 787h2v2h-2zM355 787h2v4h-2zM361 787h2v2h-2zM367 787h2v4h-2zM373 787h2v2h-2zM379 787h2v4h-2zM385 787h2v2h-2zM391 787h2v4h-2zM397 787h2v2h-2zM403 787h2v4h-2zM409 787h2v2h-2zM415 787h2v4h-2zM421 787h2v2h-2zM427 787h2v4h-2zM433.2 787h2v2h-2zM439.2 787h2v4h-2zM445.2 787h2v2h-2zM451.2 787h2v4h-2zM457.3 787h2v2h-2z"/><g><path class="cls-8" d="M451.2 787h2v4h-2zM457.3 787h2v2h-2zM463.3 787h2v4h-2zM469.3 787h2v2h-2zM475.3 787h2v4h-2zM481.4 787h2v2h-2zM487.4 787h2v4h-2zM493.4 787h2v2h-2zM499.4 787h2v4h-2zM505.4 787h2v2h-2zM511.5 787h2v4h-2zM517.5 787h2v2h-2zM523.5 787h2v4h-2zM529.5 787h2v2h-2zM535.5 787h2v4h-2zM541.6 787h2v2h-2zM547.6 787h2v4h-2zM553.6 787h2v2h-2zM559.6 787h2v4h-2zM565.6 787h2v2h-2zM572.7 787h2v4h-2zM578.7 787h2v2h-2zM584.7 787h2v4h-2zM590.7 787h2v2h-2zM596.8 787h2v4h-2zM602.8 787h2v2h-2zM608.8 787h2v4h-2zM614.8 787h2v2h-2zM621 787h2v4h-2zM627 787h2v2h-2zM633 787h2v4h-2zM639 787h2v2h-2zM645 787h2v4h-2zM651 787h2v2h-2zM657 787h2v4h-2zM663 787h2v2h-2zM669 787h2v4h-2zM675 787h2v2h-2zM681 787h2v4h-2zM687 787h2v2h-2zM693 787h2v4h-2zM699 787h2v2h-2zM705 787h2v4h-2zM711.2 787h2v2h-2z"/></g><path class="cls-12" d="M197.3 785.8h516v2h-516z"/><g><path class="cls-10" d="M326.3 840.3h-129V895h6.4v-28.5c0-7.7 5-14 12.7-14s12.7 6.3 12.7 14V895h6.5v-28.5c0-7.7 5-14 12.7-14s12.8 6.3 12.8 14V895h6.4v-28.5c0-7.7 5-14 12.7-14s12.8 6.3 12.8 14V895h6.4v-28.5c0-7.7 5-14 12.7-14s12.7 6.3 12.7 14V895h6.3v-28.5c0-7.7 5-14 12.7-14s12.8 6.3 12.8 14V895h6.4v-28.5c0-7.7 5-14 12.6-14s12.7 6.3 12.7 14V895h6.4v-28.5c0-7.7 5-14 12.7-14s12.8 6.3 12.8 14V895h6.4v-28.5c0-7.7 5-14 12.7-14s12.7 6.3 12.7 14V895h6.4v-54.7h-132z"/><circle class="cls-12" cx="232.4" cy="852.7" r="3.1"/><circle class="cls-12" cx="264.2" cy="852.7" r="3.1"/><circle class="cls-12" cx="295.9" cy="852.7" r="3.1"/><circle class="cls-12" cx="359.7" cy="852.8" r="3.1"/><circle class="cls-12" cx="391.7" cy="852.8" r="3.1"/><circle class="cls-12" cx="423.2" cy="852.8" r="3.1"/><circle class="cls-12" cx="328" cy="852.8" r="3.1"/><path class="cls-10" d="M581 840.3H452V895h6.4v-28.5c0-7.7 5-14 12.7-14s12.8 6.3 12.8 14V895h6.4v-28.5c0-7.7 5-14 12.7-14s12.7 6.3 12.7 14V895h6.3v-28.5c0-7.7 5-14 12.8-14s12.7 6.3 12.7 14V895h6.4v-28.5c0-7.7 5-14 12.6-14s12.7 6.3 12.7 14V895h6.4v-28.5c0-7.7 5-14 12.7-14s12.8 6.3 12.8 14V895h6.3v-28.5c0-7.7 5-14 12.8-14s12.7 6.3 12.7 14V895h6.4v-28.5c0-7.7 5-14 12.7-14s13 6.3 13 14V895h6.2v-28.5c0-7.7 5-14 12.8-14s12.7 6.3 12.7 14V895h6.4v-54.7H581z"/><circle class="cls-12" cx="487.1" cy="852.7" r="3.1"/><circle class="cls-12" cx="518.9" cy="852.7" r="3.1"/><circle class="cls-12" cx="550.7" cy="852.7" r="3.1"/><circle class="cls-12" cx="614.4" cy="852.8" r="3.1"/><circle class="cls-12" cx="646.4" cy="852.8" r="3.1"/><circle class="cls-12" cx="678" cy="852.8" r="3.1"/><circle class="cls-12" cx="582.7" cy="852.8" r="3.1"/><circle class="cls-12" cx="455.2" cy="852.7" r="3.1"/><path class="cls-8" d="M197.3 841.6h2v4h-2zM203.3 841.6h2v2h-2zM209.3 841.6h2v4h-2zM215.4 841.6h2v2h-2zM221.4 841.6h2v4h-2zM227.4 841.6h2v2h-2zM233.4 841.6h2v4h-2zM239.5 841.6h2v2h-2zM245.5 841.6h2v4h-2zM251.5 841.6h2v2h-2zM257.5 841.6h2v4h-2zM263.5 841.6h2v2h-2zM269.6 841.6h2v4h-2zM275.6 841.6h2v2h-2zM281.6 841.6h2v4h-2zM287.6 841.6h2v2h-2zM293.6 841.6h2v4h-2zM299.7 841.6h2v2h-2zM305.7 841.6h2v4h-2zM311.7 841.6h2v2h-2zM318.7 841.6h2v4h-2zM324.8 841.6h2v2h-2zM330.8 841.6h2v4h-2zM336.8 841.6h2v2h-2zM342.8 841.6h2v4h-2zM349 841.6h2v2h-2zM355 841.6h2v4h-2zM361 841.6h2v2h-2zM367 841.6h2v4h-2zM373 841.6h2v2h-2zM379 841.6h2v4h-2zM385 841.6h2v2h-2zM391 841.6h2v4h-2zM397 841.6h2v2h-2zM403 841.6h2v4h-2zM409 841.6h2v2h-2zM415 841.6h2v4h-2zM421 841.6h2v2h-2zM427 841.6h2v4h-2zM433 841.6h2v2h-2zM439.2 841.6h2v4h-2zM445.2 841.6h2v2h-2zM451.2 841.6h2v4h-2zM457.2 841.6h2v2h-2z"/><g><path class="cls-8" d="M451.2 841.6h2v4h-2zM457.2 841.6h2v2h-2zM463.3 841.6h2v4h-2zM469.3 841.6h2v2h-2zM475.3 841.6h2v4h-2zM481.3 841.6h2v2h-2zM487.4 841.6h2v4h-2zM493.4 841.6h2v2h-2zM499.4 841.6h2v4h-2zM505.4 841.6h2v2h-2zM511.4 841.6h2v4h-2zM517.5 841.6h2v2h-2zM523.5 841.6h2v4h-2zM529.5 841.6h2v2h-2zM535.5 841.6h2v4h-2zM541.5 841.6h2v2h-2zM547.6 841.6h2v4h-2zM553.6 841.6h2v2h-2zM559.6 841.6h2v4h-2zM565.6 841.6h2v2h-2zM572.7 841.6h2v4h-2zM578.7 841.6h2v2h-2zM584.7 841.6h2v4h-2zM590.7 841.6h2v2h-2zM596.7 841.6h2v4h-2zM602.8 841.6h2v2h-2zM608.8 841.6h2v4h-2zM614.8 841.6h2v2h-2zM620.8 841.6h2v4h-2zM627 841.6h2v2h-2zM633 841.6h2v4h-2zM639 841.6h2v2h-2zM645 841.6h2v4h-2zM651 841.6h2v2h-2zM657 841.6h2v4h-2zM663 841.6h2v2h-2zM669 841.6h2v4h-2zM675 841.6h2v2h-2zM681 841.6h2v4h-2zM687 841.6h2v2h-2zM693 841.6h2v4h-2zM699 841.6h2v2h-2zM705 841.6h2v4h-2zM711 841.6h2v2h-2z"/></g><path class="cls-12" d="M197.3 840.3h516v2h-516z"/></g><g><path class="cls-13" d="M158 858.6v-80h39.2v80z"/><path class="cls-14" d="M158.2 781.2h39v1.7h-39z"/><path class="cls-5" d="M160.5 784.3h3.2v3.2h-3.2zM166.7 784.3h3.2v3.2h-3.3zM173 784.3h3.2v3.2H173zM179.3 784.3h3.2v3.2h-3.2zM185.6 784.3h3.2v3.2h-3.2zM191.8 784.3h3.2v3.2h-3.2z"/><path class="cls-14" d="M158.2 798h39v1.6h-39z"/><path class="cls-5" d="M160.5 801h3.2v3.2h-3.2zM166.7 801h3.2v3.2h-3.3zM173 801h3.2v3.2H173zM179.3 801h3.2v3.2h-3.2zM185.6 801h3.2v3.2h-3.2zM191.8 801h3.2v3.2h-3.2z"/><path class="cls-14" d="M158.2 814.6h39v1.7h-39z"/><path class="cls-5" d="M160.5 817.8h3.2v3.2h-3.2zM166.7 817.8h3.2v3.2h-3.3zM173 817.8h3.2v3.2H173zM179.3 817.8h3.2v3.2h-3.2zM185.6 817.8h3.2v3.2h-3.2zM191.8 817.8h3.2v3.2h-3.2z"/><path class="cls-14" d="M158.2 831.3h39v1.7h-39z"/><path class="cls-5" d="M160.5 834.5h3.2v3.2h-3.2zM166.7 834.5h3.2v3.2h-3.3zM173 834.5h3.2v3.2H173zM179.3 834.5h3.2v3.2h-3.2zM185.6 834.5h3.2v3.2h-3.2zM191.8 834.5h3.2v3.2h-3.2z"/><path class="cls-15" d="M86.4 751.3h35.4V798H86.4z"/><path class="cls-5" d="M88.3 759.8h9v4.5h-9zM99.6 759.8h9v4.5h-9zM120 759.8v4.4h-9v-4.4"/><path class="cls-13" d="M116.8 762.5H147v45.3h-30.2z"/><path class="cls-14" d="M132 783h42.4v1.6H132zM147 778.6v-24h38.5v24z"/><path class="cls-5" d="M178 771a2.5 2.5 0 1 1 5 0v7.6h-5V771zM183 761.7h-3.3v-3.2h3.2zM177 761.7h-3.3v-3.2h3.2zM171 761.7h-3.3v-3.2h3.2zM164.8 761.7h-3.2v-3.2h3.2zM158.8 761.7h-3.2v-3.2h3.2z"/><path class="cls-15" d="M77 799h61.4v24H77z"/><path class="cls-5" d="M89.3 801.4h3.2v3.2h-3.2z"/><path class="cls-14" d="M91.7 799v-20h32.5v20z"/><path class="cls-5" d="M99.3 791.4a2.5 2.5 0 1 0-5 0v7.7h5v-7.6zM94.2 782.8h3.2v3.2h-3.2zM100.3 782.8h3.2v3.2h-3.2zM106.3 782.8h3.2v3.2h-3.2zM112.4 782.8h3.2v3.2h-3.2zM118.4 782.8h3.2v3.2h-3.2z"/><path class="cls-13" d="M71.2 773.4h20.5V823H71.2z"/><path class="cls-14" d="M183 808v39.3h-59V808z"/><path class="cls-15" d="M143.6 770.3h31v37.5h-31z"/><g><circle class="cls-15" cx="128.4" cy="812.2" r="1.3"/><circle class="cls-15" cx="134.7" cy="812.2" r="1.3"/><circle class="cls-15" cx="141" cy="812.2" r="1.3"/><circle class="cls-15" cx="147.3" cy="812.2" r="1.3"/><circle class="cls-15" cx="153.5" cy="812.2" r="1.3"/><circle class="cls-15" cx="159.8" cy="812.2" r="1.3"/><circle class="cls-15" cx="166.1" cy="811.6" r="1.3"/><circle class="cls-15" cx="172.3" cy="811.6" r="1.3"/><circle class="cls-15" cx="178.6" cy="811.6" r="1.3"/></g><g><path class="cls-5" d="M127 817h15.2v5h-15zM146 817h15v5h-15zM164.8 817h15v5h-15z"/></g><g><path class="cls-5" d="M127 825.5h15.2v4.8h-15zM146 825.5h15v4.8h-15zM164.8 825.5h15v4.8h-15z"/></g><g><path class="cls-5" d="M146.8 773.8h6.7v6.7h-6.7zM155.6 773.8h6.7v6.7h-6.7zM164.3 773.8h6.7v6.7h-6.7z"/><path class="cls-13" d="M146 773.4h25.8v.8h-26z"/></g><g><path class="cls-5" d="M146.8 786.3h6.7v6.7h-6.7zM155.6 786.3h6.7v6.7h-6.7zM164.3 786.3h6.7v6.7h-6.7z"/><path class="cls-13" d="M146 786h25.8v.7h-26z"/></g><path class="cls-5" d="M106.8 815a2.5 2.5 0 1 0-5 0v8h5V815zM95.6 801.4h3.2v3.2h-3.2zM101.8 801.4h3.2v3.2h-3.2zM108 801.4h3.3v3.2H108zM114.4 801.4h3.2v3.2h-3.2zM120.7 801.4h3.2v3.2h-3.3zM127 801.4h3v3.2h-3zM133.2 801.4h3.2v3.2h-3.2z"/><g><path class="cls-5" d="M158.8 761.7h-3.2v-3.2h3.2zM152.7 761.7h-3.2v-3.2h3.2z"/></g><path class="cls-5" d="M74.2 776.6H81v6.7H74zM82 776.6H89v6.7H82z"/><path class="cls-15" d="M73.3 776.2h16.3v.8H73.3z"/><g><path class="cls-5" d="M74.2 789H81v6.8H74zM82 789H89v6.8H82z"/><path class="cls-15" d="M73.3 788.7h16.3v.8H73.3z"/></g><g><path class="cls-5" d="M74.2 801.7H81v6.7H74zM82 801.7H89v6.7H82z"/><path class="cls-15" d="M73.3 801.3h16.3v.8H73.3z"/></g><path class="cls-5" d="M84 815a2.5 2.5 0 1 0-5 0v8h5V815z"/><g><circle class="cls-13" cx="91.6" cy="755.1" r="1.3"/><circle class="cls-13" cx="97.9" cy="755.1" r="1.3"/><circle class="cls-13" cx="104.1" cy="755.1" r="1.3"/><circle class="cls-13" cx="110.4" cy="755.1" r="1.3"/><circle class="cls-13" cx="116.7" cy="755.1" r="1.3"/></g><path class="cls-5" d="M134.5 791.4a2.5 2.5 0 1 0-5 0v7.7h5v-7.6zM140.5 775a2.5 2.5 0 1 0-5 0v8h5V775z"/><path class="cls-14" d="M116.8 767h21v1.6h-21z"/></g><g><path class="cls-16" d="M332 756.2h-45.5c-2.7 0-5 1.5-5 4.5h55.2c0-3-2-4.5-4.8-4.5z"/><path class="cls-13" d="M281.6 760.7h55v18h-55z"/><path class="cls-14" d="M291.5 763H287a3.4 3.4 0 0 0-3.6 3.2v12.4h11.4v-12.4a3 3 0 0 0-3.3-3.4zM305 763h-4.6a3.4 3.4 0 0 0-3.6 3.2v12.4h11.4v-12.4a3 3 0 0 0-3.3-3.4zM318.3 763h-4.5a3.4 3.4 0 0 0-3.6 3.2v12.4h11.4v-12.4a3 3 0 0 0-3.3-3.4zM331.7 763h-4.5a3.4 3.4 0 0 0-3.6 3.2v12.4H335v-12.4a3 3 0 0 0-3.3-3.4z"/><path class="cls-5" d="M281 778.6h56.6v2H281zM295 754.7h28.4v1.5H295z"/></g><path class="cls-11" d="M244.4 937c0-68.2-55.7-124.5-124.4-124.5S-4.5 868.8-4.5 937h249z"/><path class="cls-7" d="M778.8 895c0-66-36.8-120.8-52.8-121.3-17 .5-52.6 55.3-52.6 121.3h105.4z"/><g><circle class="cls-5" cx="330.1" cy="783.2" r="2.5"/><circle class="cls-5" cx="324.1" cy="783.2" r="2.5"/></g><g><circle class="cls-5" cx="294.7" cy="783.2" r="2.5"/><circle class="cls-5" cx="288.7" cy="783.2" r="2.5"/></g></g><g><path class="cls-17" d="M936.5 893.6H1600V967H936.5z"/><path class="cls-9" d="M1187.6 960.4a34.5 34.5 0 0 0-1.7-5.5c-10.8-27-56.3-48.8-124.6-57.4V918H632.8v-24.4H2v73.6H0v61.8h1188.3v-61.8a32.3 32.3 0 0 0-.7-6.8z"/><path class="cls-11" d="M1061.4 918v-20.4a534 534 0 0 0-66.4-4H632.8V918H853v3c1.2 14.6 25 26.3 54.5 26.3s53.3-11.7 54.4-26.2v-3h99.4z"/><circle class="cls-12" cx="115.3" cy="863.6" r="2.2"/><path class="cls-5" d="M128 870h104.6v27H128z"/><path class="cls-16" d="M128 870h104.6v2H128z"/><path class="cls-9" d="M141 884.4h-9v-9h9v9zm-8.6-.3h8.4v-8.3h-8.4v8.4z"/><path class="cls-9" d="M150 884.4h-9.2v-9h9v9zm-9-.3h8.5v-8.3H141v8.4z"/><path class="cls-9" d="M158.6 884.4h-9v-9h9v9zm-8.7-.3h8.3v-8.3h-8.4v8.4z"/><path class="cls-9" d="M167.3 884.4h-9v-9h9v9zm-8.7-.3h8.4v-8.3h-8.4v8.4z"/><path class="cls-9" d="M176 884.4h-9v-9h9v9zm-8.7-.3h8.4v-8.3h-8.4v8.4z"/><path class="cls-9" d="M184.8 884.4h-9v-9h9v9zm-8.7-.3h8.5v-8.3H176v8.4z"/><path class="cls-9" d="M193.6 884.4h-9v-9h9v9zm-8.8-.3h8.4v-8.3h-8.4v8.4z"/><path class="cls-9" d="M202.3 884.4h-9v-9h9v9zm-8.8-.3h8.4v-8.3h-8.5v8.4z"/><path class="cls-9" d="M211 884.4h-9v-9h9v9zm-8.7-.3h8.3v-8.3h-8.3v8.4z"/><path class="cls-9" d="M219.8 884.4h-9v-9h9v9zm-8.8-.3h8.4v-8.3H211v8.4z"/><path class="cls-9" d="M228.5 884.4h-9v-9h9v9zm-8.7-.3h8.3v-8.3H220v8.4zM141 893h-9v-9h9v9zm-8.6-.2h8.4v-8.4h-8.4v8.4z"/><path class="cls-9" d="M150 893h-9.2v-9h9v9zm-9-.2h8.5v-8.4H141v8.4z"/><path class="cls-9" d="M158.6 893h-9v-9h9v9zm-8.7-.2h8.3v-8.4h-8.4v8.4z"/><path class="cls-9" d="M167.3 893h-9v-9h9v9zm-8.7-.2h8.4v-8.4h-8.4v8.4z"/><path class="cls-9" d="M176 893h-9v-9h9v9zm-8.7-.2h8.4v-8.4h-8.4v8.4z"/><path class="cls-9" d="M184.8 893h-9v-9h9v9zm-8.7-.2h8.5v-8.4H176v8.4z"/><path class="cls-9" d="M193.6 893h-9v-9h9v9zm-8.8-.2h8.4v-8.4h-8.4v8.4z"/><path class="cls-9" d="M202.3 893h-9v-9h9v9zm-8.8-.2h8.4v-8.4h-8.5v8.4z"/><path class="cls-9" d="M211 893h-9v-9h9v9zm-8.7-.2h8.3v-8.4h-8.3v8.4z"/><path class="cls-9" d="M219.8 893h-9v-9h9v9zm-8.8-.2h8.4v-8.4H211v8.4z"/><path class="cls-9" d="M228.5 893h-9v-9h9v9zm-8.7-.2h8.3v-8.4H220v8.4z"/><ellipse class="cls-16" cx="170.9" cy="927.9" rx="28.6" ry="9.3"/><path class="cls-5" d="M173.7 930.5h-5.3l1.2-1.7h3l1 1.7zM180 925.8h-5.4l1.2-1.7h3l1 1.8zM168 925h-5.5l1.2-1.6h3l1.2 1.7z"/><path class="cls-18" d="M165.6 874.6h8v6h-8z"/><circle class="cls-10" cx="165.2" cy="873.9" r=".7"/><path class="cls-10" d="M164.8 874.3h.7v50h-.7z"/><path class="cls-13" d="M171.4 880h8v6h-8z"/><circle class="cls-10" cx="171" cy="879.3" r=".7"/><path class="cls-10" d="M170.7 879.7h.7v50h-.7z"/><path class="cls-19" d="M177.6 875.3h8v6h-8z"/><circle class="cls-10" cx="177.2" cy="874.6" r=".7"/><path class="cls-10" d="M176.8 875h.7v50h-.7z"/><path class="cls-20" d="M1572.8 908.6l-12 29.2"/><path class="cls-18" d="M1572.6 908.6a13.2 13.2 0 0 0-16 4 13.4 13.4 0 0 0-.7 1.3 10.2 10.2 0 0 1 7 3.7c3.2-7 7.4-8.5 9.6-9zM1580 924.7a13.3 13.3 0 0 0-7-16c2.3 3.2 1 11.3-.6 13.5a10.7 10.7 0 0 1 7.5 2.5z"/><path class="cls-10" d="M1573 908.8l-.4-.2c-2 .6-6.4 2-9.7 9 2.5.2 6.7 1 9.5 4.6 1.4-2.2 2.8-10.3.5-13.4z"/><circle class="cls-5" cx="1572.8" cy="908.6" r=".7" transform="rotate(-53.1 1561 907.8)"/><path class="cls-15" d="M519.5 871.6H597V910h-77.5z"/><path class="cls-5" d="M523.8 890h20v20h-20zM548.3 890h20v20h-20zM572.7 890h20v20h-20zM523.8 875.8h7.7v1.8h-7.7zM536.2 875.8h7.7v1.8H536zM548.3 875.8h7.7v1.8h-7.7zM560.6 875.8h7.7v1.8h-7.7zM572.7 875.8h7.7v1.8h-7.7zM585 875.8h7.8v1.8H585z"/><path class="cls-16" d="M523.8 898.7h20v.4h-20zM523.8 902.2h20v.4h-20zM523.8 905.6h20v.4h-20z"/><g><path class="cls-16" d="M548.3 898.7h20v.4h-20zM548.3 902.2h20v.4h-20zM548.3 905.6h20v.4h-20z"/></g><g><path class="cls-16" d="M572.7 898.7h20v.4h-20zM572.7 902.2h20v.4h-20zM572.7 905.6h20v.4h-20z"/></g><g><path class="cls-16" d="M526.8 891.8h5v5h-5zM535.8 891.8h5v5h-5z"/></g><g><path class="cls-16" d="M551.3 891.8h5v5h-5zM560.3 891.8h5v5h-5z"/></g><g><path class="cls-16" d="M575.7 891.8h5v5h-5zM584.7 891.8h5v5h-5z"/></g><ellipse class="cls-16" cx="1066.8" cy="917.9" rx="28.6" ry="9.3"/><g><path class="cls-18" d="M225.2 878h26.2v44.7h-26.2z"/><path class="cls-5" d="M227.2 880h9.5v4h-9.5zM240 880h9.4v4H240zM227.2 887h9.5v4.3h-9.5zM240 887h9.4v4.3H240z"/><g><path class="cls-5" d="M227.2 894.2h9.5v4.2h-9.5zM240 894.2h9.4v4.2H240z"/></g><g><path class="cls-5" d="M227.2 901.4h9.5v4.2h-9.5zM240 901.4h9.4v4.2H240z"/></g></g><g><path class="cls-18" d="M99.2 851h29.5v77H99.2z"/><path class="cls-5" d="M100.4 852.4h27v2h-27zM100.4 856h27v2h-27zM100.4 859.6h27v2h-27zM100.4 863h27v2h-27zM100.4 866.7h27v2h-27zM100.4 870.3h27v2h-27zM100.4 874h27v1.8h-27zM100.4 877.4h27v2h-27zM100.4 881h27v2h-27zM100.4 884.6h27v2h-27zM100.4 888h27v2h-27zM100.4 891.7h27v2h-27zM100.4 895.3h27v2h-27zM100.4 899h27v1.8h-27zM100.4 902.5h27v2h-27z"/></g><g><path class="cls-9" d="M15 875.7h-3.3v-3.3H15z"/><path class="cls-8" d="M0 897.4h26.6V959H0z"/><path class="cls-16" d="M13.3 874.8A13.3 13.3 0 0 1 26.6 888v4.4H0V888a13.3 13.3 0 0 1 13.3-13.2z"/><path class="cls-10" d="M0 892.4h26.6v5H0z"/><path class="cls-9" d="M8.3 943.7c0-3 2-5.5 5-5.5s5 2.5 5 5.5V959h-10v-15.3z"/><path class="cls-16" d="M25 967H0V959h25zM23.3 937.3H0V934h23.3z"/><path class="cls-16" d="M16.6 897.4H20v38.2h-3.4zM6.7 897.4H10v38.2H6.7z"/><circle class="cls-9" cx="13.3" cy="881.6" r="3"/><circle class="cls-10" cx="13.3" cy="870.7" r="2.5"/><path class="cls-9" d="M98 872.5h3.3v3.3H98z"/><path class="cls-8" d="M86.4 897.4H113V959H86.4z"/><path class="cls-16" d="M99.7 874.8A13.3 13.3 0 0 0 86.4 888v4.4H113V888a13.3 13.3 0 0 0-13.3-13.2z"/><path class="cls-10" d="M86.4 892.4H113v5H86.4z"/><path class="cls-9" d="M104.7 943.7c0-3-2-5.5-5-5.5s-5 2.5-5 5.5V959h10v-15.3z"/><path class="cls-16" d="M88 959h25v8.2H88zM89.7 934H113v3.2H89.7z"/><path class="cls-16" d="M93 897.4h3.3v38.2H93zM103 897.4h3.3v38.2H103z"/><circle class="cls-9" cx="99.7" cy="881.6" r="3"/><circle class="cls-10" cx="99.7" cy="870.7" r="2.5"/><path class="cls-10" d="M81.4 892.4h3.3v5h-3.3z"/><path class="cls-10" d="M23.3 889h66.5v70H23.3z"/><path class="cls-9" d="M23.3 934h66.5v3.2H23.3z"/><path class="cls-16" d="M76.4 943.7c0-3-2-5.5-5-5.5s-5 2.5-5 5.5V959h10v-15.3zM61.5 943.7c0-3-2-5.5-5-5.5s-5 2.5-5 5.5V959h10v-15.3zM46.5 943.7c0-3-2-5.5-5-5.5s-5 2.5-5 5.5V959h10v-15.3z"/><path class="cls-9" d="M91 889H22l-3.4-5h75.8l-3.3 5zM23.3 892.4h66.5v5H23.3z"/><path class="cls-8" d="M30 944H38v15H30zM45 944H53v15H45z"/><g><path class="cls-8" d="M29.2 897.4l2.4 3.3v49.8h5v-49.8l2.3-3.3H29zM44.2 897.4l2.3 3.3v49.8h5v-49.8l2.4-3.3H44zM59 897.4l2.5 3.3v49.8h5v-49.8l2.3-3.3h-9.6zM74 897.4l2.4 3.3v49.8h5v-49.8l2.4-3.3H74z"/></g><path class="cls-8" d="M59.8 944H68v15H60zM74.8 944H83v15H75z"/><path class="cls-9" d="M94.7 970H18.3l5-11h66.4l5 11z"/><path class="cls-18" d="M56.8 862h6.7v5h-6.7z"/><circle class="cls-10" cx="56.5" cy="861.5" r=".6"/><path class="cls-10" d="M56.2 861.8h.6v9.5h-.6z"/><path class="cls-16" d="M56.5 871a13.7 13.7 0 0 1 13.3 13H43.2a13.7 13.7 0 0 1 13.3-13z"/></g><g><path class="cls-11" d="M312.6 946c-19.3 0-35-7.8-35-17.5s15.7-17.6 35-17.6h104.8c19.3 0 35 7.8 35 17.5s-15.7 17.6-35 17.6H312.6z"/><path class="cls-16" d="M417.4 916c8.5 0 16.7 1.6 22.5 4.5 4.6 2.4 7.4 5.4 7.4 8s-2.8 5.6-7.5 8c-6 3-14 4.6-22.6 4.6H312.6c-8.5 0-16.7-1.6-22.5-4.5-4.6-2.3-7.4-5.3-7.4-8s2.8-5.6 7.5-8c6-3 14-4.6 22.6-4.6h104.8m0-5H312.6c-19.3 0-35 7.8-35 17.5s15.7 17.6 35 17.6h104.8c19.3 0 35-7.8 35-17.5s-15.7-17.6-35-17.6z"/></g><g><ellipse class="cls-16" cx="365" cy="927.9" rx="17.8" ry="5.8"/><path class="cls-8" d="M357.5 921.6h15v8h-15z"/><path class="cls-21" d="M364.7 918s-.2-4.6-.8-9l-.5-3.4-.5-3-.3-1-.2-.8-.2-.7a1.3 1.3 0 0 1 2.4-.8l.2 1v1l.2 1.2c0 1 0 2 .2 3s0 2.3 0 3.4v9.2a.3.3 0 0 1-.7 0z"/><path class="cls-21" d="M365 918l-.2-.8a15.8 15.8 0 0 0-3-7.2 4.8 4.8 0 0 0-2-1.7 2.5 2.5 0 0 0-1.3 0 3.2 3.2 0 0 0-1 .3l-.4.3-.2.2c-.3 0-.5.3-.6.5l-.5.5a1 1 0 0 1-1.5-1.4l.7-.7.7-.5.5-.3.6-.3a5 5 0 0 1 1.6-.5 4 4 0 0 1 1.8.3 6 6 0 0 1 2.7 2.5 15.6 15.6 0 0 1 2 6 15 15 0 0 1 0 2v.6z"/><path class="cls-21" d="M365 918l-.3-.4c0-.2 0-.4-.2-.6s-.2-.5-.3-.7l-.4-.8a10 10 0 0 0-.5-1 9.5 9.5 0 0 0-.6-.8 6 6 0 0 0-.8-.7 2 2 0 0 0-.5-.3 2 2 0 0 0-.4-.2 2.4 2.4 0 0 0-.8-.2h-.4-.4a4.2 4.2 0 0 0-.7.5l-.5.4a4.8 4.8 0 0 0-.4.4l-.3.4a.7.7 0 0 1-1-1l.3-.4a6 6 0 0 1 .5-.4c.2 0 .5-.3.7-.5a5.2 5.2 0 0 1 1-.4h1.2a3.4 3.4 0 0 1 1.3.3 4.4 4.4 0 0 1 1 .7 6.7 6.7 0 0 1 .8 1 10 10 0 0 1 .5 1 10.5 10.5 0 0 1 .5 1c0 .3.2.6.3.8l.2 1 .2.5v.5zM362.7 908v-.3l-.2-.2-.6-.8-.8-.8a1.7 1.7 0 0 0-.2-.3.5.5 0 1 1 .5-1v.2a3 3 0 0 1 .4.3c0 .3.3.6.4 1l.4 1 .2.3a.2.2 0 0 1-.2.4z"/><g><path class="cls-21" d="M365 918v-.8a15 15 0 0 1 0-2 15.6 15.6 0 0 1 2.2-6 6 6 0 0 1 2.6-2.3 4 4 0 0 1 1.8-.4 5 5 0 0 1 1.6.4l.7.3.4.3.8.6.6.6a1 1 0 1 1-1.4 1.6l-.6-.6c0-.2-.3-.4-.5-.5l-.4-.3-.5-.3a3.2 3.2 0 0 0-1-.4 2.5 2.5 0 0 0-1 0 4.8 4.8 0 0 0-2.4 1.8 15.8 15.8 0 0 0-2.8 7.3v.8h-.3z"/><path class="cls-21" d="M365 918v-.5c0-.2 0-.4.2-.6s0-.6.2-1l.3-.7a10.5 10.5 0 0 1 .5-1 10 10 0 0 1 .6-1 6.7 6.7 0 0 1 .7-1 4.4 4.4 0 0 1 1-.7 3.4 3.4 0 0 1 1.2-.4H371a5.2 5.2 0 0 1 1 .5l.7.5a6 6 0 0 1 .5.5l.4.3a.7.7 0 1 1-1 1l-.4-.4a4.8 4.8 0 0 0-.3-.4l-.7-.4a4.2 4.2 0 0 0-.6-.4h-.8a2.4 2.4 0 0 0-1 0 2 2 0 0 0-.4.3 2 2 0 0 0-.5.3 6 6 0 0 0-.6.8 9.5 9.5 0 0 0-.6.8 10 10 0 0 0-.5 1l-.4.7-.4.7-.2.6-.2.5h-.3zM367 907.7v-.4l.5-1 .6-1a3 3 0 0 1 .4-.4.5.5 0 1 1 .7.6 1.7 1.7 0 0 0-.3.3c-.2 0-.4.4-.6.7l-.5.8-.2.2v.2a.2.2 0 0 1-.3 0 .2.2 0 0 1 0-.3z"/></g><path class="cls-12" d="M357 920h16v1.6h-16z"/><path class="cls-8" d="M364.2 918h1.6v2h-1.6z"/><path class="cls-9" d="M366.2 917.6h-2.4a.3.3 0 0 0 0 .7h2.4a.3.3 0 1 0 0-.7z"/></g><g><circle class="cls-6" cx="335.9" cy="915.9" r="3.4"/><circle class="cls-6" cx="321.6" cy="915.9" r="3.4"/><circle class="cls-6" cx="307.4" cy="915.9" r="3.4"/><g><circle class="cls-6" cx="422.6" cy="915.9" r="3.4"/><circle class="cls-6" cx="408.4" cy="915.9" r="3.4"/><circle class="cls-6" cx="394.1" cy="915.9" r="3.4"/></g></g><g><path class="cls-14" d="M664.3 907.4v-44h19v44z"/><path class="cls-5" d="M667.4 888h5.7v5.6h-5.6zM674.3 888h5.7v5.6h-5.7z"/><path class="cls-15" d="M666.7 887.6h14v.7h-14z"/><path class="cls-5" d="M667.4 877.2h5.7v5.7h-5.6zM674.3 877.2h5.7v5.7h-5.7z"/><path class="cls-15" d="M666.7 877h14v.6h-14z"/><g><path class="cls-5" d="M667.4 866.6h5.7v5.7h-5.6zM674.3 866.6h5.7v5.7h-5.7z"/><path class="cls-15" d="M666.7 866.2h14v.7h-14z"/></g><path class="cls-5" d="M676 900.7a2.2 2.2 0 1 0-4.5 0v6.7h4.4v-6.7z"/></g><g><path class="cls-10" d="M1055 922l11.5-65.2 18 63.2-29.5 2z"/><path class="cls-8" d="M1066.5 856.8l-17.4 59.7 6 5.6 11.5-65.2z"/></g><circle class="cls-7" cx="689.7" cy="902.9" r="3"/><circle class="cls-7" cx="657.7" cy="902.9" r="3"/><path class="cls-13" d="M702.5 883h36.8v24.4h-36.8z"/><path class="cls-15" d="M702.5 872H726v11h-23.5z"/><path class="cls-14" d="M702.5 883h36.8v1.2h-36.8zM702.5 871.2H726v1.2h-23.5z"/><path class="cls-5" d="M709 876.3a2.2 2.2 0 1 0-4.5 0v6.7h4.4v-6.7zM737 900.7a2.2 2.2 0 1 0-4.4 0v6.7h4.4v-6.7z"/><g><path class="cls-5" d="M713.2 874h2.3v2.3h-2.3zM717.5 874h2.3v2.3h-2.3zM721.8 874h2.3v2.3H722z"/></g><g><path class="cls-5" d="M704.5 885.3h2.3v2.3h-2.3zM709 885.3h2.2v2.3H709zM713.2 885.3h2.3v2.3h-2.3z"/></g><g><path class="cls-5" d="M717.5 885.3h2.3v2.3h-2.3zM721.8 885.3h2.3v2.3H722z"/></g><g><path class="cls-5" d="M726 885.3h2.4v2.3H726zM730.4 885.3h2.3v2.3h-2.3z"/></g><path class="cls-5" d="M734.7 885.3h2.3v2.3h-2.3z"/><path class="cls-14" d="M702.5 896h36.8v1h-36.8z"/><g><path class="cls-5" d="M704.5 898.4h2.3v2.3h-2.3zM709 898.4h2.2v2.3H709zM713.2 898.4h2.3v2.3h-2.3z"/></g><g><path class="cls-5" d="M717.5 898.4h2.3v2.3h-2.3zM721.8 898.4h2.3v2.3H722z"/></g><path class="cls-5" d="M726 898.4h2.4v2.3H726z"/><path class="cls-9" d="M671.5 907.4l-1.4 8.3h7.3l-1.4-8.3M732.6 907.4l-1.4 8.3h7.2l-1.4-8.3"/><g><path class="cls-15" d="M764.6 872h25.2v35.4h-25.2z"/><circle class="cls-13" cx="768.3" cy="874.9" r=".9"/><circle class="cls-13" cx="772.8" cy="874.9" r=".9"/><circle class="cls-13" cx="777.2" cy="874.9" r=".9"/><circle class="cls-13" cx="781.7" cy="874.9" r=".9"/><circle class="cls-13" cx="786.2" cy="874.9" r=".9"/><path class="cls-5" d="M779.4 900.7a2.2 2.2 0 1 0-4.3 0v6.7h4.4v-6.7z"/><g><path class="cls-5" d="M766 898.3h6.5v3.2H766zM788.5 898.3v3.2H782v-3.2"/></g><g><path class="cls-5" d="M766 898.4h6.5v3.2H766zM788.5 898.4v3H782v-3"/></g><g><path class="cls-5" d="M766 887.7h6.5v3.2H766zM774 887.7h6.5v3.2H774zM788.5 887.7v3H782v-3"/></g><g><path class="cls-5" d="M766 877h6.5v3.2H766zM774 877h6.5v3.2H774zM788.5 877v3H782v-3"/></g></g><path class="cls-9" d="M775 907.4l-1.4 8.3h7.3l-1.6-8.3"/><circle class="cls-7" cx="758.1" cy="902.9" r="3"/><circle class="cls-7" cx="796.4" cy="902.9" r="3"/><g><ellipse class="cls-14" cx="1237.5" cy="927.3" rx="2.9" ry="1.4"/><ellipse class="cls-14" cx="1275.3" cy="927.3" rx="2.9" ry="1.4"/><path class="cls-22" d="M1237.5 900.6h37.8v9h-37.8z"/><circle class="cls-5" cx="1237.5" cy="899.3" r=".7"/><path class="cls-5" d="M1237.2 899.7h.7v27.5h-.8z"/><g><circle class="cls-5" cx="1275.3" cy="899.3" r=".7"/><path class="cls-5" d="M1275 899.7h.7v27.5h-.7z"/></g></g><g><ellipse class="cls-14" cx="1311.5" cy="927.3" rx="2.9" ry="1.4"/><ellipse class="cls-14" cx="1349.3" cy="927.3" rx="2.9" ry="1.4"/><path class="cls-23" d="M1311.5 900.6h37.8v9h-37.8z"/><circle class="cls-5" cx="1311.5" cy="899.3" r=".7"/><path class="cls-5" d="M1311 899.7h.8v27.5h-.7z"/><g><circle class="cls-5" cx="1349.3" cy="899.3" r=".7"/><path class="cls-5" d="M1349 899.7h.6v27.5h-.7z"/></g></g><g><ellipse class="cls-14" cx="1385.4" cy="927.3" rx="2.9" ry="1.4"/><ellipse class="cls-14" cx="1423.2" cy="927.3" rx="2.9" ry="1.4"/><path class="cls-24" d="M1385.4 900.6h37.8v9h-37.8z"/><circle class="cls-5" cx="1385.4" cy="899.3" r=".7"/><path class="cls-5" d="M1385 899.7h.7v27.5h-.7z"/><g><circle class="cls-5" cx="1423.2" cy="899.3" r=".7"/><path class="cls-5" d="M1423 899.7h.6v27.5h-.7z"/></g></g><g><path class="cls-20" d="M1538.3 917.7l17 26.6"/><path class="cls-11" d="M1538.5 917.7a13.2 13.2 0 0 1 16.4 1.2 13.4 13.4 0 0 1 1 1 10.2 10.2 0 0 0-6.2 5c-4.6-6.4-9-7-11.3-7.3zM1534.3 934.8a13.3 13.3 0 0 1 4-16.8c-1.8 3.4 1 11.2 3 13a10.7 10.7 0 0 0-7 3.8z"/><path class="cls-10" d="M1538.2 918l.3-.2c2.2.2 6.7.8 11.2 7-2.5.7-6.5 2.3-8.6 6.3-1.7-2-4.5-9.6-2.8-13z"/><circle class="cls-5" cx="1538.3" cy="917.7" r=".7" transform="rotate(-47.7 1538.3 917.7)"/></g><path class="cls-25" d="M1186 955a34.5 34.5 0 0 1 1.6 5.4 32.3 32.3 0 0 1 .7 6.8v41.2H1600V955h-414z"/><path class="cls-16" d="M962 920c0 15-24.4 27.3-54.5 27.3-29.4 0-53.3-11.7-54.4-26.2v-6.6H631.8v6.7h214c.6 9.8 7.6 18.4 20 24.6 11.3 5.7 26 8.8 41.7 8.8s30.4-3 41.7-8.8c13-6.4 20-15.5 20-25.5H962z"/><path class="cls-16" d="M1049.8 914.4H962v6.7h87.8v-6.6z"/><g><path class="cls-18" d="M830 863.7h155v30H830z"/><path class="cls-5" d="M954.8 860.2l2 7.5h6.5l-2.2-7.5H955zM979.7 860.2l2.8 7.5h6.3l-3-7.5h-6zM967.3 860.2l2.4 7.5h6.5l-2.7-7.5h-6.2zM841.4 860.2l-2.6 7.5h6.4l2.4-7.5h-6.2zM891.7 860.2l-.7 7.5h6.6l.4-7.5h-6.3zM904.3 860.2v7.5h6.5v-7.5h-6.5zM879 860.2l-1 7.5h6.5l1-7.5H879zM854 860.2l-2.3 7.5h6.5l2-7.5H854zM866.5 860.2l-1.7 7.5h6.5l1.5-7.5h-6.3zM942.2 860.2l1.4 7.5h6.6l-1.7-7.5h-6.3zM829 860.2l-2.8 7.5h6.2l2.8-7.5h-6zM929.6 860.2l1 7.5h6.5l-1-7.5h-6.4zM917 860.2l.4 7.5h6.6l-.7-7.5H917z"/><path class="cls-10" d="M835.2 860.2l-2.8 7.5h6.4l2.6-7.5h-6.2zM847.7 860.2l-2.5 7.5h6.5l2.2-7.5h-6.3zM860.2 860.2l-2 7.5h6.6l1.7-7.5h-6.3zM872.8 860.2l-1.5 7.5h6.6l1-7.5H873zM885.4 860.2l-1 7.5h6.6l.7-7.5h-6.4zM898 860.2l-.4 7.5h6.6v-7.5H898zM910.6 860.2l.2 7.5h6.6l-.4-7.5h-6.4zM923.3 860.2l.6 7.5h6.5l-1-7.5h-6.2zM936 860.2l1 7.5h6.6l-1.4-7.5H936zM948.5 860.2l1.7 7.5h6.5l-2-7.5h-6.2zM961 860.2l2.2 7.5h6.5l-2.4-7.5H961zM973.5 860.2l2.7 7.5h6.3l-2.8-7.5h-6.2z"/><path class="cls-16" d="M829 857.7H986v2.5H829z"/><g><path class="cls-5" d="M840.7 874h19.6v19.6h-19.6zM869.2 874h19.6v19.6h-19.6zM897.7 874h19.6v19.6h-19.6zM926.2 874h19.6v19.6h-19.6zM954.7 874h19.6v19.6h-19.6z"/></g></g><g><path class="cls-11" d="M864.3 872a7 7 0 1 0-9.4 10c.7-.8.4-1.8 1.4-3l-1.4-.4 3.5-.5 3.2-3.3-2.6-.4 3.6-.5z"/><path class="cls-7" d="M840.4 878.7a7 7 0 0 1 13.4 3l-4-.8 2-2-3 1.6-4.7-1 2-1.8-3 1.5z"/><path class="cls-25" d="M854 881a.8.8 0 0 1 1 .2l1 .8 1.5 1a17.3 17.3 0 0 1 1.6 1.7 8.5 8.5 0 0 1 .8 1 9.8 9.8 0 0 1 .8 1 16 16 0 0 1 1 2.7c.3.4.5 1 .6 1.3l.3 1.4.3 1.4.2 1.3.2 1.3v1.3l.3 2.3v2c.2 1.4.2 2.5.2 3.2v1.2l-8.2-.8.2-1 .6-3 .3-2 .3-2v-1l.2-1.2v-1-2.3-1a11.5 11.5 0 0 0-.5-2 6.2 6.2 0 0 0-.3-1 5.5 5.5 0 0 0-.4-.8 13.6 13.6 0 0 0-1-1.7c-.3-.4-.6-1-1-1.2s-.5-.6-.8-.8l-.8-1z"/><path class="cls-7" d="M867.4 879.2a7 7 0 0 0-13.2 4l4-1.2-2.2-1.7 3.3 1.4 4.5-1.4-2-1.7 3.2 1.3z"/><path class="cls-11" d="M842 887a7 7 0 1 1 13.2-4l-4 1 1-2.5-2 3-4.6 1.3.8-2.6-2 3z"/></g><g><path class="cls-11" d="M877 878a7.3 7.3 0 1 1 12.2 8c-1-.7-1-1.8-2.3-2.7l1.2-.8-3.7.4-4.2-2.7 2.6-1.2-3.8.5z"/><path class="cls-7" d="M903.3 878.6a7.3 7.3 0 0 0-13 6.8l3.8-2-2.4-1.3 3.7.8 4.4-2.3-2.5-1.3 3.7.7z"/><path class="cls-25" d="M891 884.8a.8.8 0 0 0-1 .2l-1 .8-1.4 1a17.3 17.3 0 0 0-1.6 1.7 8.5 8.5 0 0 0-.8 1 9.8 9.8 0 0 0-.7 1 16 16 0 0 0-1.2 2.7c0 .4-.3 1-.4 1.3l-.5 1.4-.3 1.2-.2 1.3-.2 1.3v1.3l-.3 2.4v6.4l8-.8-.2-1c0-.8-.3-1.8-.5-3 0-.6-.3-1.2-.4-2l-.3-2v-2.2l-.2-1v-2.3-1a11.5 11.5 0 0 1 .5-2 6.2 6.2 0 0 1 .4-1 5.5 5.5 0 0 1 .4-1 13.6 13.6 0 0 1 1-1.4l1-1 .8-1 .8-1z"/><path class="cls-7" d="M875.7 886.4a7.3 7.3 0 1 1 14.6.5l-4.3-.2 1.7-2.3-3 2.2-5-.2 1.8-2.3-3 2.3z"/><path class="cls-11" d="M903.8 887.5a7.3 7.3 0 1 0-14.5-.6h4.2l-1.5-2.4 3 2.5 4.8.3-1.5-2.4 2.8 2.4z"/></g><g><path class="cls-11" d="M938.2 877.2a7 7 0 1 0-12.4 6c1-.5 1-1.6 2.5-2.2l-1.2-1 3.6 1 4.2-2-2.3-1.5 3.4.8z"/><path class="cls-7" d="M913.5 874.8a7 7 0 1 1 11.3 7.8l-3.3-2.3 2.5-1-3.5.3-4-2.7 2.6-1-3.4.2z"/><path class="cls-25" d="M927 882.3l2.2 10 .4 1.3c0 .5.2 1 .3 1.3v1.3l.3 1.3v1.2l.3 2.4v6.2l-8-.7.2-1c0-.8.3-1.8.5-3 0-.5.3-1.2.4-1.8l.3-2.2v-1l.2-1.3v-1-2.2l-1-10.2z"/><path class="cls-7" d="M938.4 885a7 7 0 1 0-13.7-1l4 .3-1.3-2.3 2.6 2.4 4.6.4-1.3-2.3 2.6 2.4z"/><path class="cls-11" d="M912 883a7 7 0 1 1 13.7 1l-4-.2 1.7-2-3 2-4.6-.5 1.7-2-3 2z"/></g><g><path class="cls-11" d="M971.5 873.6a7 7 0 0 0-9.4 10c1-.8.6-1.8 1.6-3l-1.4-.3 3.5-.6 3.2-3.4-2.7-.4 3.5-.6z"/><path class="cls-7" d="M947.6 880.4a7 7 0 1 1 13.4 3l-4-.8 2-1.8-3 1.5-4.7-1 2-2-3.3 1.7z"/><path class="cls-25" d="M961.3 882.6a.8.8 0 0 1 1 .2l1 .8 1.4 1.2a17.3 17.3 0 0 1 1.6 1.6 8.5 8.5 0 0 1 .7 1 9.8 9.8 0 0 1 .7 1 16 16 0 0 1 1.2 2.6c0 .5.3 1 .4 1.4l.3 1.3.3 1.3.2 1.4.2 1.3v1.2c.2.8.3 1.5.3 2.3v2c.2 1.4.2 2.4.2 3.2v1l-8.3-.7.2-1c0-.8.3-1.8.5-3l.3-1.8.3-2 .3-1.2v-1.2-1-2.2-1a11.5 11.5 0 0 0-.4-2 6.2 6.2 0 0 0-.4-1 5.5 5.5 0 0 0-.4-1 13.6 13.6 0 0 0-1-1.4c-.3-.5-.6-1-1-1.2s-.5-.7-.8-1l-.8-.8z"/><path class="cls-7" d="M974.6 881a7 7 0 1 0-13.2 4l4-1.3-2.2-1.7 3.3 1.3 4.4-1.3-2.2-1.7 3.3 1.3z"/><path class="cls-11" d="M949.2 888.6a7 7 0 0 1 13-4l-3.7 1 .8-2.4-2 3-4.5 1.3.8-2.6-2 2.8z"/></g><g><ellipse class="cls-16" cx="907.5" cy="927.9" rx="17.8" ry="5.8"/><path class="cls-8" d="M900 921.6h15v8h-15z"/><path class="cls-21" d="M907.2 918s-.3-4.6-.8-9c0-1.3-.3-2.4-.4-3.4l-.5-3-.3-1-.2-.8-.2-.7a1.3 1.3 0 0 1 2.4-.8l.2 1v1l.3 1.2c0 1 0 2 .2 3s0 2.3 0 3.4l-.2 9.2a.3.3 0 0 1-.6 0z"/><path class="cls-21" d="M907.4 918v-.8a15.8 15.8 0 0 0-3-7.2 4.8 4.8 0 0 0-2.3-1.7 2.5 2.5 0 0 0-1 0 3.2 3.2 0 0 0-1 .3l-.4.3-.4.2-.5.5-.5.5a1 1 0 0 1-1.6-1.4l.7-.7c.3 0 .5-.2.8-.4l.6-.4.7-.3a5 5 0 0 1 1.6-.5 4 4 0 0 1 1.7.3 6 6 0 0 1 2.7 2.5 15.6 15.6 0 0 1 2 6 15 15 0 0 1 .2 2v.6h-.2z"/><path class="cls-21" d="M907.4 918l-.2-.4c0-.2 0-.4-.2-.6s-.2-.5-.3-.7l-.4-.8a10 10 0 0 0-.5-1 9.5 9.5 0 0 0-.7-.8 6 6 0 0 0-.6-.7 2 2 0 0 0-.4-.3 2 2 0 0 0-.4-.2 2.4 2.4 0 0 0-1-.2h-.7a4.2 4.2 0 0 0-.8.5l-.5.4a4.8 4.8 0 0 0-.4.4l-.3.4a.7.7 0 0 1-1-1l.3-.3a6 6 0 0 1 .5-.5c.2 0 .5-.3.7-.5a5.2 5.2 0 0 1 1-.4h1.4a3.4 3.4 0 0 1 1.2.3 4.4 4.4 0 0 1 1 .8 6.7 6.7 0 0 1 .8 1 10 10 0 0 1 .5 1 10.5 10.5 0 0 1 .5 1l.3.8.3.7.2.5v.5zM905.2 908v-.3l-.2-.2-.6-.8-.7-.8a1.7 1.7 0 0 0-.3-.3.5.5 0 0 1 .6-1v.2a3 3 0 0 1 .4.3l.5 1 .3 1 .2.3a.2.2 0 0 1-.2.4z"/><g><path class="cls-21" d="M907.4 918v-.8a15 15 0 0 1 .2-2 15.6 15.6 0 0 1 2-6 6 6 0 0 1 2.7-2.3 4 4 0 0 1 1.8-.4 5 5 0 0 1 1.7.4l.6.3.6.3.7.6.6.6a1 1 0 1 1-1.4 1.6h-.2l-.5-.6c-.2-.2-.3-.4-.6-.5l-.3-.3-.4-.3a3.2 3.2 0 0 0-1-.4 2.5 2.5 0 0 0-1.2 0 4.8 4.8 0 0 0-2.2 1.8 15.8 15.8 0 0 0-3 7.3v.8h-.2z"/><path class="cls-21" d="M907.4 918v-.5l.2-.6.3-1 .2-.7a10.5 10.5 0 0 1 .4-1 10 10 0 0 1 .6-1 6.7 6.7 0 0 1 .8-1 4.4 4.4 0 0 1 1-.7 3.4 3.4 0 0 1 1.2-.4h1.2a5.2 5.2 0 0 1 1 .5l.7.5a6 6 0 0 1 .5.5l.4.3a.7.7 0 1 1-1 1l-.3-.4a4.8 4.8 0 0 0-.4-.4l-.5-.4a4.2 4.2 0 0 0-.7-.4h-.7a2.4 2.4 0 0 0-1 0 2 2 0 0 0-.3.3 2 2 0 0 0-.4.3 6 6 0 0 0-.8.8 9.5 9.5 0 0 0-.6.8 10 10 0 0 0-.5 1l-.4.7-.3.7-.2.6-.2.5h-.3zM909.5 907.7v-.4l.5-1 .5-1a3 3 0 0 1 .3-.4.5.5 0 1 1 .8.6 1.7 1.7 0 0 0-.4.3c-.2 0-.4.4-.7.7l-.6.8-.2.2v.2a.2.2 0 0 1-.3 0 .2.2 0 0 1 0-.3z"/></g><path class="cls-12" d="M899.4 920h16.2v1.6h-16.2z"/><path class="cls-8" d="M906.7 918h1.6v2h-1.6z"/><path class="cls-9" d="M908.6 917.6h-2.3a.3.3 0 0 0 0 .7h2.4a.3.3 0 1 0 0-.7z"/></g><g><path class="cls-5" d="M476.5 825.4h43v77h-43z"/><path class="cls-16" d="M478.2 827h39.6v4.6h-39.6zM478.2 834h39.6v4.8h-39.6zM478.2 841.2h39.6v4.7h-39.6zM478.2 848.4h39.6v4.7h-39.6zM478.2 855.5h39.6v4.7h-39.6zM478.2 862.7h39.6v4.7h-39.6zM478.2 869.8h39.6v4.7h-39.6zM478.2 877h39.6v4.7h-39.6z"/></g><g><path class="cls-5" d="M597 809.5H633v118.8H597z"/><path class="cls-16" d="M600.7 813h7v7.2h-7zM611.4 813h7v7.2h-7zM622 813h7.2v7.2h-7zM600.7 823.8h7v7h-7zM611.4 823.8h7v7h-7zM622 823.8h7.2v7h-7zM600.7 834.5h7v7h-7zM611.4 834.5h7v7h-7zM622 834.5h7.2v7h-7zM600.7 845h7v7.2h-7zM611.4 845h7v7.2h-7zM622 845h7.2v7.2h-7zM600.7 855.8h7v7h-7zM611.4 855.8h7v7h-7zM622 855.8h7.2v7h-7zM600.7 866.5h7v7h-7zM611.4 866.5h7v7h-7zM622 866.5h7.2v7h-7zM600.7 877.2h7v7h-7zM611.4 877.2h7v7h-7zM622 877.2h7.2v7h-7zM600.7 888h7v7h-7zM611.4 888h7v7h-7zM622 888h7.2v7h-7zM600.7 898.6h7v7h-7zM611.4 898.6h7v7h-7zM622 898.6h7.2v7h-7zM600.7 912.8h28.5v15.6h-28.5z"/><path class="cls-5" d="M626 928.4h-.7V917h-20.7v11.4h-.7v-12h22v12z"/><path class="cls-5" d="M614.6 916.7h.7v11.7h-.7z"/></g><g class="cls-26"><g class="cls-27"><path class="cls-5" d="M1592.4 896.6l36.5-36.4.2.2-36.5 36.5zM1585.2 889.4l36.5-36.5.3.2-36.5 36.5zM1578 882l36.4-36.3.3.2-36.5 36.4zM1570.7 875l36.5-36.6.3.3-36.5 36.5zM1563.4 867.6l36.5-36.4.2.2-36.5 36.5zM1588.8 893l36.5-36.5.3.3-36.5 36.5zM1581.7 885.8l36.4-36.5.4.3L1582 886zM1574.3 878.5l36.5-36.5.3.3-36.4 36.5zM1567.2 871.3l36.4-36.5.3.3-36.6 36.5zM1559.8 864l36.5-36.5.3.3-36.5 36.5z"/><path class="cls-5" d="M1556.2 933l36.5-36.6.3.3-36.5 36.5zM1549 925.6l36.4-36.5.3.4-36.5 36.5zM1541.7 918.4l36.5-36.5.3.2-36.5 36.5zM1534.4 911l36.5-36.4.2.3-36.5 36.4zM1527.2 904l36.5-36.6.3.3-36.5 36.5zM1552.6 929.3l36.5-36.5.4.3-36.5 36.5zM1545.3 922l36.5-36.5.3.3-36.4 36.5zM1538 914.8l36.6-36.5.3.3-36.6 36.4zM1530.8 907.5l36.5-36.5.3.3-36.5 36.5zM1523.6 900.3l36.5-36.5.3.3-36.4 36.6z"/><path class="cls-5" d="M1520 969.2l36.5-36.5.2.3-36.4 36.5zM1512.7 962l36.5-36.6.3.3-36.5 36.5zM1505.5 954.7l36.5-36.5.2.3-36.4 36.5zM1498.2 947.4l36.5-36.5.3.2-36.5 36.5zM1491 940l36.4-36.4.3.3-36.5 36.4zM1516.3 965.5l36.5-36.5.3.3-36.4 36.5zM1509 958.3l36.5-36.5.3.3-36.5 36.6zM1501.8 951l36.5-36.5.3.3-36.5 36.5zM1494.6 943.8l36.5-36.5.3.3-36.5 36.5zM1487.3 936.5l36.5-36.5.3.3-36.4 36.5z"/></g><g class="cls-28"><path class="cls-5" d="M1599.7 904l36.5-36.6.3.3-36.5 36.5zM1596 900.3l36.6-36.5.3.3-36.6 36.6zM1592.5 969.2l36.5-36.5.3.3-36.5 36.5zM1585.2 962l36.5-36.6.3.3-36.5 36.5zM1578 954.7l36.5-36.5.2.3-36.4 36.5zM1570.7 947.4l36.5-36.5.3.2-36.5 36.5z"/><path class="cls-5" d="M1563.4 940l36.5-36.3.2.2-36.5 36.4zM1588.8 965.5l36.5-36.5.3.3-36.5 36.5zM1581.6 958.3l36.5-36.5.4.3-36.5 36.6zM1574.3 951l36.5-36.5.3.3-36.4 36.5zM1567 943.8l36.6-36.5.3.3-36.6 36.4zM1559.8 936.5l36.5-36.5.3.3-36.5 36.5zM1556.2 1005.4l36.5-36.5.3.2-36.5 36.5zM1549 998.2l36.5-36.5.2.3-36.4 36.5zM1541.7 991l36.5-36.6.3.3-36.5 36.5zM1534.5 983.7l36.5-36.5.2.3-36.4 36.5z"/><path class="cls-5" d="M1527.2 976.4l36.5-36.5.3.2-36.5 36.5zM1552.6 1001.8l36.5-36.5.4.3-36.5 36.5zM1545.3 994.5l36.5-36.5.3.3-36.4 36.5zM1538 987.3l36.6-36.5.3.3-36.6 36.6zM1530.8 980l36.5-36.5.3.3-36.5 36.5zM1523.6 972.8l36.4-36.5.3.3-36.5 36.5z"/></g><g class="cls-29"><path class="cls-5" d="M1599.7 976.4l36.5-36.5.3.2-36.5 36.5zM1596 972.8l36.6-36.5.3.3-36.6 36.5zM1585.2 1034.4l36.5-36.5.3.2-36.5 36.5zM1578 1027.2l36.4-36.5.3.3-36.5 36.5zM1570.7 1020l36.5-36.6.3.3-36.5 36.5z"/><path class="cls-5" d="M1563.5 1012.7l36.5-36.5.2.3-36.5 36.5zM1581.6 1030.8l36.5-36.5.4.3-36.5 36.5zM1574.3 1023.5l36.5-36.5.3.3-36.4 36.5zM1567 1016.3l36.6-36.5.3.3-36.6 36.6zM1559.8 1009l36.5-36.5.3.3-36.5 36.5z"/></g><g class="cls-30"><path class="cls-5" d="M1520 896.6l36.4-36.5.3.4-36.5 36.5zM1512.7 889.4l36.5-36.5.3.2-36.5 36.5zM1505.4 882l36.5-36.4.2.3-36.5 36.4zM1498.2 875l36.5-36.6.3.3-36.5 36.5zM1491 867.6l36.4-36.5.3.4-36.5 36.5zM1516.3 893l36.5-36.5.3.3-36.4 36.5zM1509 885.8l36.6-36.5.2.3-36.4 36.5zM1501.8 878.5l36.5-36.5.3.3-36.5 36.5zM1494.6 871.3l36.5-36.5.4.3-36.5 36.6zM1487.3 864l36.5-36.5.3.3-36.4 36.5z"/><path class="cls-5" d="M1483.7 933l36.5-36.6.3.3-36.5 36.5zM1476.4 925.6L1513 889l.2.4-36.5 36.5zM1469.2 918.4l36.5-36.5.3.2-36.5 36.5zM1462 911l36.4-36.4.3.3-36.5 36.4zM1454.7 904l36.5-36.6.3.3-36.5 36.5zM1480 929.3l36.6-36.5.2.3-36.4 36.6zM1472.8 922l36.5-36.5.3.3-36.5 36.5zM1465.6 914.8l36.5-36.5.3.3L1466 915zM1458.3 907.5l36.5-36.5.3.3-36.4 36.5zM1451 900.3l36.6-36.5.2.3-36.4 36.6z"/><path class="cls-5" d="M1447.5 969.2l36.5-36.5.2.3-36.4 36.5zM1440 962l36.6-36.5.3.2-36.6 36.5zM1433 954.7l36.5-36.5.2.3-36.5 36.5zM1425.7 947.4L1462 911l.4.2-36.5 36.5zM1418.4 940l36.5-36.4.2.3-36.5 36.4zM1443.8 965.5l36.5-36.5.3.3-36.5 36.5zM1436.6 958.3l36.4-36.5.3.3-36.5 36.6zM1429.3 951l36.5-36.5.3.3-36.4 36.5zM1422 943.8l36.5-36.5.3.3-36.5 36.5zM1414.8 936.5l36.5-36.5.3.3-36.5 36.5z"/></g><g class="cls-31"><path class="cls-5" d="M1556.2 933l36.5-36.6.3.3-36.5 36.5zM1549 925.6l36.4-36.5.3.4-36.5 36.5zM1541.7 918.4l36.5-36.5.3.2-36.5 36.5zM1534.4 911l36.5-36.4.2.3-36.5 36.4zM1527.2 904l36.5-36.6.3.3-36.5 36.5zM1552.6 929.3l36.5-36.5.4.3-36.5 36.5zM1545.3 922l36.5-36.5.3.3-36.4 36.5zM1538 914.8l36.6-36.5.3.3-36.6 36.4zM1530.8 907.5l36.5-36.5.3.3-36.5 36.5zM1523.6 900.3l36.5-36.5.3.3-36.4 36.6z"/><path class="cls-5" d="M1520 969.2l36.5-36.5.2.3-36.4 36.5zM1512.7 962l36.5-36.6.3.3-36.5 36.5zM1505.5 954.7l36.5-36.5.2.3-36.4 36.5zM1498.2 947.4l36.5-36.5.3.2-36.5 36.5zM1491 940l36.4-36.4.3.3-36.5 36.4zM1516.3 965.5l36.5-36.5.3.3-36.4 36.5zM1509 958.3l36.5-36.5.3.3-36.5 36.6zM1501.8 951l36.5-36.5.3.3-36.5 36.5zM1494.6 943.8l36.5-36.5.3.3-36.5 36.5zM1487.3 936.5l36.5-36.5.3.3-36.4 36.5z"/><path class="cls-5" d="M1483.7 1005.4l36.5-36.5.3.2-36.5 36.5zM1476.5 998.2l36.5-36.5.2.3-36.5 36.5zM1469.2 991l36.5-36.6.3.3-36.5 36.5zM1462 983.7l36.5-36.5.2.3-36.4 36.5zM1454.7 976.4l36.5-36.5.3.2-36.5 36.5zM1480 1001.8l36.5-36.5.3.3-36.5 36.5zM1472.8 994.5l36.5-36.5.3.3-36.5 36.5zM1465.6 987.3l36.4-36.5.3.3-36.5 36.6zM1458.3 980l36.5-36.5.3.3-36.4 36.5zM1451 972.8l36.5-36.5.3.3-36.5 36.5z"/></g><g class="cls-32"><path class="cls-5" d="M1592.5 969.2l36.5-36.5.3.3-36.5 36.5zM1585.2 962l36.5-36.6.3.3-36.5 36.5zM1578 954.7l36.5-36.5.2.3-36.4 36.5zM1570.7 947.4l36.5-36.5.3.2-36.5 36.5zM1563.4 940l36.5-36.3.2.2-36.5 36.4zM1588.8 965.5l36.5-36.5.3.3-36.5 36.5zM1581.6 958.3l36.5-36.5.4.3-36.5 36.6zM1574.3 951l36.5-36.5.3.3-36.4 36.5zM1567 943.8l36.6-36.5.3.3-36.6 36.4zM1559.8 936.5l36.5-36.5.3.3-36.5 36.5z"/><path class="cls-5" d="M1556.2 1005.4l36.5-36.5.3.2-36.5 36.5zM1549 998.2l36.5-36.5.2.3-36.4 36.5zM1541.7 991l36.5-36.6.3.3-36.5 36.5zM1534.5 983.7l36.5-36.5.2.3-36.4 36.5zM1527.2 976.4l36.5-36.5.3.2-36.5 36.5zM1552.6 1001.8l36.5-36.5.4.3-36.5 36.5zM1545.3 994.5l36.5-36.5.3.3-36.4 36.5zM1538 987.3l36.6-36.5.3.3-36.6 36.6zM1530.8 980l36.5-36.5.3.3-36.5 36.5zM1523.6 972.8l36.4-36.5.3.3-36.5 36.5z"/><path class="cls-5" d="M1512.7 1034.4l36.5-36.5.3.2-36.5 36.5zM1505.5 1027.2l36.4-36.5.2.3-36.5 36.5zM1498.2 1020l36.5-36.6.3.3-36.5 36.5zM1491 1012.7l36.4-36.5.3.3-36.5 36.5zM1509 1030.8l36.5-36.5.3.3-36.5 36.5zM1501.8 1023.5l36.5-36.5.3.3-36.5 36.5zM1494.6 1016.3l36.4-36.5.3.3-36.5 36.6zM1487.3 1009l36.5-36.5.3.3-36.4 36.5z"/></g><g class="cls-33"><path class="cls-5" d="M1599.7 976.4l36.5-36.5.3.2-36.5 36.5zM1596 972.8l36.6-36.5.3.3-36.6 36.5zM1585.2 1034.4l36.5-36.5.3.2-36.5 36.5zM1578 1027.2l36.4-36.5.3.3-36.5 36.5zM1570.7 1020l36.5-36.6.3.3-36.5 36.5z"/><path class="cls-5" d="M1563.5 1012.7l36.5-36.5.2.3-36.5 36.5zM1581.6 1030.8l36.5-36.5.4.3-36.5 36.5zM1574.3 1023.5l36.5-36.5.3.3-36.4 36.5zM1567 1016.3l36.6-36.5.3.3-36.6 36.6zM1559.8 1009l36.5-36.5.3.3-36.5 36.5z"/></g><g class="cls-34"><path class="cls-5" d="M1447.4 896.6L1484 860l.2.4-36.5 36.5zM1440.2 889.4l36.4-36.5.3.2-36.6 36.5zM1433 882l36.4-36.4.3.3-36.5 36.4zM1425.7 875l36.5-36.6.2.3-36.5 36.5zM1418.4 867.6L1455 831l.2.4-36.5 36.5zM1443.8 893l36.5-36.5.3.3-36.5 36.5zM1436.6 885.8l36.5-36.5.3.3L1437 886zM1429.3 878.5l36.5-36.5.3.3-36.4 36.5zM1422 871.3l36.6-36.5.2.3-36.4 36.6zM1414.8 864l36.5-36.5.3.3-36.5 36.5z"/><path class="cls-5" d="M1411 933l36.6-36.6.3.3-36.6 36.5zM1404 925.6l36.4-36.5.3.4-36.5 36.5zM1396.6 918.4L1433 882l.4.2-36.5 36.5zM1389.4 911l36.5-36.4.2.3-36.5 36.4zM1382.2 904l36.4-36.6.3.3-36.6 36.5zM1407.6 929.3l36.5-36.5.3.3-36.5 36.6zM1400.3 922l36.5-36.5.3.3-36.4 36.5zM1393 914.8l36.5-36.5.3.3-36.5 36.5zM1385.7 907.5l36.5-36.4.3.3-36.5 36.5zM1378.6 900.3l36.4-36.5.3.3-36.5 36.6z"/><path class="cls-5" d="M1375 969.2l36.4-36.5.3.3-36.5 36.5zM1367.6 962l36.5-36.6.4.3-36.5 36.5zM1360.5 954.7l36.4-36.5.2.3-36.5 36.5zM1353 947.4l36.6-36.5.3.2-36.6 36.5zM1346 940l36.4-36.4.3.3-36.5 36.4zM1371.2 965.5l36.5-36.4.3.3-36.5 36.5zM1364 958.3l36.5-36.5.3.3-36.5 36.6zM1356.7 951l36.5-36.4.3.2-36.5 36.5zM1349.6 943.8l36.4-36.5.3.3-36.5 36.5zM1342.2 936.5l36.5-36.4.3.3-36.5 36.5z"/></g><g class="cls-35"><path class="cls-5" d="M1483.7 933l36.5-36.6.3.3-36.5 36.5zM1476.4 925.6L1513 889l.2.4-36.5 36.5zM1469.2 918.4l36.5-36.5.3.2-36.5 36.5zM1462 911l36.4-36.4.3.3-36.5 36.4zM1454.7 904l36.5-36.6.3.3-36.5 36.5zM1480 929.3l36.6-36.5.2.3-36.4 36.6zM1472.8 922l36.5-36.5.3.3-36.5 36.5zM1465.6 914.8l36.5-36.5.3.3L1466 915zM1458.3 907.5l36.5-36.5.3.3-36.4 36.5zM1451 900.3l36.6-36.5.2.3-36.4 36.6z"/><path class="cls-5" d="M1447.5 969.2l36.5-36.5.2.3-36.4 36.5zM1440 962l36.6-36.5.3.2-36.6 36.5zM1433 954.7l36.5-36.5.2.3-36.5 36.5zM1425.7 947.4L1462 911l.4.2-36.5 36.5zM1418.4 940l36.5-36.4.2.3-36.5 36.4zM1443.8 965.5l36.5-36.5.3.3-36.5 36.5zM1436.6 958.3l36.4-36.5.3.3-36.5 36.6zM1429.3 951l36.5-36.5.3.3-36.4 36.5zM1422 943.8l36.5-36.5.3.3-36.5 36.5zM1414.8 936.5l36.5-36.5.3.3-36.5 36.5z"/><path class="cls-5" d="M1411 1005.4l36.6-36.4.3.2-36.6 36.5zM1404 998.2l36.4-36.5.3.3-36.5 36.5zM1396.6 991l36.5-36.6.4.3-36.5 36.5zM1389.5 983.7l36.4-36.5.2.3-36.5 36.5zM1382 976.4l36.6-36.5.3.2-36.6 36.5zM1407.5 1001.8l36.5-36.5.3.3-36.5 36.5zM1400.3 994.5l36.5-36.5.3.3-36.4 36.5zM1393 987.3l36.5-36.5.3.3-36.5 36.6zM1385.7 980l36.5-36.4.3.3-36.5 36.3zM1378.5 972.8l36.5-36.5.3.3-36.5 36.5z"/></g><g class="cls-36"><path class="cls-5" d="M1520 969.2l36.5-36.5.2.3-36.4 36.5zM1512.7 962l36.5-36.6.3.3-36.5 36.5zM1505.5 954.7l36.5-36.5.2.3-36.4 36.5zM1498.2 947.4l36.5-36.5.3.2-36.5 36.5zM1491 940l36.4-36.4.3.3-36.5 36.4zM1516.3 965.5l36.5-36.5.3.3-36.4 36.5zM1509 958.3l36.5-36.5.3.3-36.5 36.6zM1501.8 951l36.5-36.5.3.3-36.5 36.5zM1494.6 943.8l36.5-36.5.3.3-36.5 36.5zM1487.3 936.5l36.5-36.5.3.3-36.4 36.5z"/><path class="cls-5" d="M1483.7 1005.4l36.5-36.5.3.2-36.5 36.5zM1476.5 998.2l36.5-36.5.2.3-36.5 36.5zM1469.2 991l36.5-36.6.3.3-36.5 36.5zM1462 983.7l36.5-36.5.2.3-36.4 36.5zM1454.7 976.4l36.5-36.5.3.2-36.5 36.5zM1480 1001.8l36.5-36.5.3.3-36.5 36.5zM1472.8 994.5l36.5-36.5.3.3-36.5 36.5zM1465.6 987.3l36.4-36.5.3.3-36.5 36.6zM1458.3 980l36.5-36.5.3.3-36.4 36.5zM1451 972.8l36.5-36.5.3.3-36.5 36.5z"/><path class="cls-5" d="M1440 1034.4l36.6-36.4.3.2-36.6 36.5zM1433 1027.2l36.4-36.5.3.3-36.5 36.5zM1425.6 1020l36.5-36.5.4.2-36.5 36.5zM1418.5 1012.7l36.4-36.5.2.3-36.5 36.5zM1436.5 1030.8l36.5-36.5.3.3-36.5 36.5zM1429.3 1023.5l36.5-36.5.3.3-36.4 36.5zM1422 1016.3l36.5-36.5.3.3-36.5 36.6zM1414.8 1009l36.5-36.5.3.3-36.5 36.5z"/></g><g class="cls-37"><path class="cls-5" d="M1556.2 1005.4l36.5-36.5.3.2-36.5 36.5zM1549 998.2l36.5-36.5.2.3-36.4 36.5zM1541.7 991l36.5-36.6.3.3-36.5 36.5zM1534.5 983.7l36.5-36.5.2.3-36.4 36.5zM1527.2 976.4l36.5-36.5.3.2-36.5 36.5zM1552.6 1001.8l36.5-36.5.4.3-36.5 36.5zM1545.3 994.5l36.5-36.5.3.3-36.4 36.5zM1538 987.3l36.6-36.5.3.3-36.6 36.6zM1530.8 980l36.5-36.5.3.3-36.5 36.5zM1523.6 972.8l36.4-36.5.3.3-36.5 36.5z"/><path class="cls-5" d="M1512.7 1034.4l36.5-36.5.3.2-36.5 36.5zM1505.5 1027.2l36.4-36.5.2.3-36.5 36.5zM1498.2 1020l36.5-36.6.3.3-36.5 36.5zM1491 1012.7l36.4-36.5.3.3-36.5 36.5zM1509 1030.8l36.5-36.5.3.3-36.5 36.5zM1501.8 1023.5l36.5-36.5.3.3-36.5 36.5zM1494.6 1016.3l36.4-36.5.3.3-36.5 36.6zM1487.3 1009l36.5-36.5.3.3-36.4 36.5z"/></g><g class="cls-38"><path class="cls-5" d="M1585.2 1034.4l36.5-36.5.3.2-36.5 36.5zM1578 1027.2l36.4-36.5.3.3-36.5 36.5zM1570.7 1020l36.5-36.6.3.3-36.5 36.5zM1563.5 1012.7l36.5-36.5.2.3-36.5 36.5zM1581.6 1030.8l36.5-36.5.4.3-36.5 36.5zM1574.3 1023.5l36.5-36.5.3.3-36.4 36.5zM1567 1016.3l36.6-36.5.3.3-36.6 36.6zM1559.8 1009l36.5-36.5.3.3-36.5 36.5z"/></g><g class="cls-39"><path class="cls-5" d="M1375 896.6l36.4-36.5.3.4-36.5 36.5zM1367.7 889.4L1404 853l.4.2-36.5 36.5zM1360.4 882l36.5-36.4.2.3-36.5 36.4zM1353.2 875l36.4-36.6.3.3-36.6 36.5zM1346 867.6l36.4-36.5.3.4-36.5 36.5zM1371.2 893l36.5-36.4.3.2-36.5 36.5zM1364 885.8l36.6-36.5.2.3-36.5 36.5zM1356.7 878.5l36.5-36.4.3.3-36.5 36.5zM1349.6 871.3l36.5-36.5.3.3-36.4 36.6zM1342.2 864l36.5-36.5.3.3-36.5 36.5z"/><path class="cls-5" d="M1338.6 933l36.5-36.6.4.3-36.5 36.5zM1331.4 925.6L1368 889l.2.4-36.5 36.5zM1324 918.4l36.6-36.5.3.2-36.6 36.5zM1317 911l36.4-36.4.3.3-36.5 36.4zM1309.6 904l36.5-36.6.4.3-36.5 36.5zM1335 929.3l36.5-36.5.3.3-36.5 36.6zM1327.7 922l36.5-36.4.3.2-36.5 36.5zM1320.6 914.8l36.4-36.5.3.3-36.5 36.5zM1313.2 907.5l36.5-36.5.3.3-36.5 36.5zM1306 900.3l36.5-36.5.3.3-36.5 36.6z"/><path class="cls-5" d="M1302.5 969.2l36.4-36.5.2.3-36.5 36.4zM1295 962l36.6-36.6.3.3-36.6 36.5zM1288 954.7l36.4-36.5.3.3-36.5 36.4zM1280.6 947.4L1317 911l.4.2-36.5 36.5zM1273.4 940l36.5-36.4.2.3-36.5 36.4zM1298.7 965.5l36.5-36.5.3.3-36.5 36.5zM1291.5 958.3l36.5-36.5.3.3-36.5 36.6zM1284.2 951l36.5-36.5.3.3-36.5 36.5zM1277 943.8l36.5-36.5.3.3-36.5 36.5zM1269.7 936.5l36.5-36.5.3.3-36.5 36.5z"/></g><g class="cls-40"><path class="cls-5" d="M1411 933l36.6-36.6.3.3-36.6 36.5zM1404 925.6l36.4-36.5.3.4-36.5 36.5zM1396.6 918.4L1433 882l.4.2-36.5 36.5zM1389.4 911l36.5-36.4.2.3-36.5 36.4zM1382.2 904l36.4-36.6.3.3-36.6 36.5zM1407.6 929.3l36.5-36.5.3.3-36.5 36.6zM1400.3 922l36.5-36.5.3.3-36.4 36.5zM1393 914.8l36.5-36.5.3.3-36.5 36.5zM1385.7 907.5l36.5-36.4.3.3-36.5 36.5zM1378.6 900.3l36.4-36.5.3.3-36.5 36.6z"/><path class="cls-5" d="M1375 969.2l36.4-36.5.3.3-36.5 36.5zM1367.6 962l36.5-36.6.4.3-36.5 36.5zM1360.5 954.7l36.4-36.5.2.3-36.5 36.5zM1353 947.4l36.6-36.5.3.2-36.6 36.5zM1346 940l36.4-36.4.3.3-36.5 36.4zM1371.2 965.5l36.5-36.4.3.3-36.5 36.5zM1364 958.3l36.5-36.5.3.3-36.5 36.6zM1356.7 951l36.5-36.4.3.2-36.5 36.5zM1349.6 943.8l36.4-36.5.3.3-36.5 36.5zM1342.2 936.5l36.5-36.4.3.3-36.5 36.5z"/><path class="cls-5" d="M1338.6 1005.4L1375 969l.4.2-36.5 36.5zM1331.5 998.2l36.4-36.5.2.3-36.5 36.5zM1324 991l36.6-36.6.3.3-36.6 36.5zM1317 983.7l36.4-36.5.3.3-36.5 36.4zM1309.6 976.4L1346 940l.4.2-36.5 36.5zM1335 1001.8l36.5-36.5.3.3-36.5 36.5zM1327.7 994.5l36.5-36.4.3.3-36.5 36.5zM1320.5 987.3l36.5-36.5.3.3-36.5 36.6zM1313.2 980l36.5-36.4.3.2-36.5 36.5zM1306 972.8l36.5-36.5.3.3-36.5 36.5z"/></g><g class="cls-41"><path class="cls-5" d="M1447.5 969.2l36.5-36.5.2.3-36.4 36.5zM1440 962l36.6-36.5.3.2-36.6 36.5zM1433 954.7l36.5-36.5.2.3-36.5 36.5zM1425.7 947.4L1462 911l.4.2-36.5 36.5zM1418.4 940l36.5-36.4.2.3-36.5 36.4zM1443.8 965.5l36.5-36.5.3.3-36.5 36.5zM1436.6 958.3l36.4-36.5.3.3-36.5 36.6zM1429.3 951l36.5-36.5.3.3-36.4 36.5zM1422 943.8l36.5-36.5.3.3-36.5 36.5zM1414.8 936.5l36.5-36.5.3.3-36.5 36.5z"/><path class="cls-5" d="M1411 1005.4l36.6-36.4.3.2-36.6 36.5zM1404 998.2l36.4-36.5.3.3-36.5 36.5zM1396.6 991l36.5-36.6.4.3-36.5 36.5zM1389.5 983.7l36.4-36.5.2.3-36.5 36.5zM1382 976.4l36.6-36.5.3.2-36.6 36.5zM1407.5 1001.8l36.5-36.5.3.3-36.5 36.5zM1400.3 994.5l36.5-36.5.3.3-36.4 36.5zM1393 987.3l36.5-36.5.3.3-36.5 36.6zM1385.7 980l36.5-36.4.3.3-36.5 36.3zM1378.5 972.8l36.5-36.5.3.3-36.5 36.5z"/><path class="cls-5" d="M1367.6 1034.4L1404 998l.4.2-36.5 36.5zM1360.4 1027.2l36.5-36.5.2.3-36.5 36.5zM1353 1020l36.6-36.6.3.3-36.6 36.5zM1346 1012.7l36.4-36.5.3.3-36.5 36.5zM1364 1030.8l36.5-36.5.3.3-36.5 36.5zM1356.7 1023.6l36.5-36.5.3.4-36.5 36.4zM1349.5 1016.3l36.5-36.5.3.3-36.5 36.6zM1342.2 1009l36.5-36.4.3.2-36.5 36.5z"/></g><g class="cls-42"><path class="cls-5" d="M1483.7 1005.4l36.5-36.5.3.2-36.5 36.5zM1476.5 998.2l36.5-36.5.2.3-36.5 36.5zM1469.2 991l36.5-36.6.3.3-36.5 36.5zM1462 983.7l36.5-36.5.2.3-36.4 36.5zM1454.7 976.4l36.5-36.5.3.2-36.5 36.5zM1480 1001.8l36.5-36.5.3.3-36.5 36.5zM1472.8 994.5l36.5-36.5.3.3-36.5 36.5zM1465.6 987.3l36.4-36.5.3.3-36.5 36.6zM1458.3 980l36.5-36.5.3.3-36.4 36.5zM1451 972.8l36.5-36.5.3.3-36.5 36.5z"/><path class="cls-5" d="M1440 1034.4l36.6-36.4.3.2-36.6 36.5zM1433 1027.2l36.4-36.5.3.3-36.5 36.5zM1425.6 1020l36.5-36.5.4.2-36.5 36.5zM1418.5 1012.7l36.4-36.5.2.3-36.5 36.5zM1436.5 1030.8l36.5-36.5.3.3-36.5 36.5zM1429.3 1023.5l36.5-36.5.3.3-36.4 36.5zM1422 1016.3l36.5-36.5.3.3-36.5 36.6zM1414.8 1009l36.5-36.5.3.3-36.5 36.5z"/></g><g class="cls-43"><path class="cls-5" d="M1512.7 1034.4l36.5-36.5.3.2-36.5 36.5zM1505.5 1027.2l36.4-36.5.2.3-36.5 36.5zM1498.2 1020l36.5-36.6.3.3-36.5 36.5zM1491 1012.7l36.4-36.5.3.3-36.5 36.5zM1509 1030.8l36.5-36.5.3.3-36.5 36.5zM1501.8 1023.5l36.5-36.5.3.3-36.5 36.5zM1494.6 1016.3l36.4-36.5.3.3-36.5 36.6zM1487.3 1009l36.5-36.5.3.3-36.4 36.5z"/></g><g class="cls-44"><path class="cls-5" d="M1302.4 896.6L1339 860l.2.4-36.5 36.5zM1295.2 889.4l36.4-36.5.3.2-36.6 36.5zM1288 882l36.4-36.4.3.3-36.5 36.4zM1280.7 875l36.4-36.6.4.3-36.5 36.5zM1273.4 867.6L1310 831l.2.4-36.5 36.5zM1298.7 893l36.5-36.5.3.3-36.5 36.5zM1291.6 885.8l36.4-36.5.3.3-36.5 36.5zM1284.2 878.5l36.5-36.5.3.3-36.5 36.5zM1277 871.3l36.6-36.5.2.3-36.5 36.6zM1269.7 864l36.5-36.5.3.3-36.5 36.5z"/><path class="cls-5" d="M1266 933l36.6-36.6.3.3-36.6 36.5zM1258.8 925.6l36.5-36.4.3.2L1259 926zM1251.6 918.4L1288 882l.4.2-36.5 36.5zM1244.3 911l36.5-36.3.3.2-36.4 36.4zM1237 904l36.6-36.6.3.3-36.6 36.5zM1262.5 929.3l36.5-36.5.3.3-36.5 36.6zM1255.2 922l36.5-36.5.3.3-36.5 36.5zM1248 914.8l36.5-36.5.3.3-36.5 36.5zM1240.7 907.5l36.5-36.5.3.3-36.5 36.5zM1233.6 900.3l36.4-36.5.3.3-36.5 36.5z"/><path class="cls-5" d="M1230 969.2l36.4-36.5.2.3-36.4 36.5zM1222.6 962l36.5-36.6.4.3-36.5 36.5zM1215.4 954.7l36.5-36.5v.3l-36.3 36.5zM1208 947.4l36.6-36.5.3.2-36.6 36.5zM1200.8 940l36.5-36.3.3.2-36.5 36.4zM1226.2 965.5l36.5-36.5.3.3-36.5 36.5zM1219 958.3l36.5-36.4h.2l-36.4 36.6zM1211.7 951l36.5-36.5.3.3-36.5 36.5zM1204.5 943.8l36.5-36.4.2.2-36.4 36.5zM1197.2 936.5l36.5-36.5.3.3-36.5 36.5z"/></g><g class="cls-45"><path class="cls-5" d="M1338.6 933l36.5-36.6.4.3-36.5 36.5zM1331.4 925.6L1368 889l.2.4-36.5 36.5zM1324 918.4l36.6-36.5.3.2-36.6 36.5zM1317 911l36.4-36.4.3.3-36.5 36.4zM1309.6 904l36.5-36.6.4.3-36.5 36.5zM1335 929.3l36.5-36.5.3.3-36.5 36.6zM1327.7 922l36.5-36.4.3.2-36.5 36.5zM1320.6 914.8l36.4-36.5.3.3-36.5 36.5zM1313.2 907.5l36.5-36.5.3.3-36.5 36.5zM1306 900.3l36.5-36.5.3.3-36.5 36.6z"/><path class="cls-5" d="M1302.5 969.2l36.4-36.5.2.3-36.5 36.4zM1295 962l36.6-36.6.3.3-36.6 36.5zM1288 954.7l36.4-36.5.3.3-36.5 36.4zM1280.6 947.4L1317 911l.4.2-36.5 36.5zM1273.4 940l36.5-36.4.2.3-36.5 36.4zM1298.7 965.5l36.5-36.5.3.3-36.5 36.5zM1291.5 958.3l36.5-36.5.3.3-36.5 36.6zM1284.2 951l36.5-36.5.3.3-36.5 36.5zM1277 943.8l36.5-36.5.3.3-36.5 36.5zM1269.7 936.5l36.5-36.5.3.3-36.5 36.5z"/><path class="cls-5" d="M1266 1005.4l36.6-36.5.3.2-36.6 36.5zM1259 998.2l36.4-36.5.2.3-36.4 36.5zM1251.6 991l36.5-36.6.4.3-36.5 36.5zM1244.4 983.7l36.5-36.5v.3l-36.3 36.5zM1237 976.4l36.6-36.5.3.2-36.6 36.5zM1262.5 1001.8l36.5-36.5.3.3-36.5 36.5zM1255.2 994.5l36.5-36.5.3.3-36.5 36.5zM1248 987.3l36.5-36.5.3.3-36.5 36.6zM1240.7 980l36.5-36.5.3.3-36.5 36.5zM1233.5 972.8l36.5-36.5.3.3-36.5 36.5z"/></g><g class="cls-46"><path class="cls-5" d="M1375 969.2l36.4-36.5.3.3-36.5 36.5zM1367.6 962l36.5-36.6.4.3-36.5 36.5zM1360.5 954.7l36.4-36.5.2.3-36.5 36.5zM1353 947.4l36.6-36.5.3.2-36.6 36.5zM1346 940l36.4-36.4.3.3-36.5 36.4zM1371.2 965.5l36.5-36.4.3.3-36.5 36.5zM1364 958.3l36.5-36.5.3.3-36.5 36.6zM1356.7 951l36.5-36.4.3.2-36.5 36.5zM1349.6 943.8l36.4-36.5.3.3-36.5 36.5zM1342.2 936.5l36.5-36.4.3.3-36.5 36.5z"/><path class="cls-5" d="M1338.6 1005.4L1375 969l.4.2-36.5 36.5zM1331.5 998.2l36.4-36.5.2.3-36.5 36.5zM1324 991l36.6-36.6.3.3-36.6 36.5zM1317 983.7l36.4-36.5.3.3-36.5 36.4zM1309.6 976.4L1346 940l.4.2-36.5 36.5zM1335 1001.8l36.5-36.5.3.3-36.5 36.5zM1327.7 994.5l36.5-36.4.3.3-36.5 36.5zM1320.5 987.3l36.5-36.5.3.3-36.5 36.6zM1313.2 980l36.5-36.4.3.2-36.5 36.5zM1306 972.8l36.5-36.5.3.3-36.5 36.5z"/><path class="cls-5" d="M1295 1034.4l36.6-36.5.3.2-36.6 36.5zM1288 1027.2l36.4-36.5.3.3-36.5 36.4zM1280.6 1020l36.5-36.6.4.3-36.5 36.5zM1273.4 1012.7l36.5-36.5.2.3-36.5 36.4zM1291.5 1030.8l36.5-36.5.3.3-36.5 36.5zM1284.2 1023.5l36.5-36.4.3.3-36.5 36.5zM1277 1016.3l36.5-36.5.3.3-36.5 36.6zM1269.7 1009l36.5-36.5.3.3-36.5 36.5z"/></g><g class="cls-47"><path class="cls-5" d="M1411 1005.4l36.6-36.4.3.2-36.6 36.5zM1404 998.2l36.4-36.5.3.3-36.5 36.5zM1396.6 991l36.5-36.6.4.3-36.5 36.5zM1389.5 983.7l36.4-36.5.2.3-36.5 36.5zM1382 976.4l36.6-36.5.3.2-36.6 36.5zM1407.5 1001.8l36.5-36.5.3.3-36.5 36.5zM1400.3 994.5l36.5-36.5.3.3-36.4 36.5zM1393 987.3l36.5-36.5.3.3-36.5 36.6zM1385.7 980l36.5-36.4.3.3-36.5 36.3zM1378.5 972.8l36.5-36.5.3.3-36.5 36.5z"/><path class="cls-5" d="M1367.6 1034.4L1404 998l.4.2-36.5 36.5zM1360.4 1027.2l36.5-36.5.2.3-36.5 36.5zM1353 1020l36.6-36.6.3.3-36.6 36.5zM1346 1012.7l36.4-36.5.3.3-36.5 36.5zM1364 1030.8l36.5-36.5.3.3-36.5 36.5zM1356.7 1023.6l36.5-36.5.3.4-36.5 36.4zM1349.5 1016.3l36.5-36.5.3.3-36.5 36.6zM1342.2 1009l36.5-36.4.3.2-36.5 36.5z"/></g><g class="cls-48"><path class="cls-5" d="M1440 1034.4l36.6-36.4.3.2-36.6 36.5zM1433 1027.2l36.4-36.5.3.3-36.5 36.5zM1425.6 1020l36.5-36.5.4.2-36.5 36.5zM1418.5 1012.7l36.4-36.5.2.3-36.5 36.5zM1436.5 1030.8l36.5-36.5.3.3-36.5 36.5zM1429.3 1023.5l36.5-36.5.3.3-36.4 36.5zM1422 1016.3l36.5-36.5.3.3-36.5 36.6zM1414.8 1009l36.5-36.5.3.3-36.5 36.5z"/></g><g class="cls-49"><path class="cls-5" d="M1266 933l36.6-36.6.3.3-36.6 36.5zM1258.8 925.6l36.5-36.4.3.2L1259 926zM1251.6 918.4L1288 882l.4.2-36.5 36.5zM1244.3 911l36.5-36.3.3.2-36.4 36.4zM1237 904l36.6-36.6.3.3-36.6 36.5zM1262.5 929.3l36.5-36.5.3.3-36.5 36.6zM1255.2 922l36.5-36.5.3.3-36.5 36.5zM1248 914.8l36.5-36.5.3.3-36.5 36.5zM1240.7 907.5l36.5-36.5.3.3-36.5 36.5zM1233.6 900.3l36.4-36.5.3.3-36.5 36.5z"/><path class="cls-5" d="M1230 969.2l36.4-36.5.2.3-36.4 36.5zM1222.6 962l36.5-36.6.4.3-36.5 36.5zM1215.4 954.7l36.5-36.5v.3l-36.3 36.5zM1208 947.4l36.6-36.5.3.2-36.6 36.5zM1200.8 940l36.5-36.3.3.2-36.5 36.4zM1226.2 965.5l36.5-36.5.3.3-36.5 36.5zM1219 958.3l36.5-36.4h.2l-36.4 36.6zM1211.7 951l36.5-36.5.3.3-36.5 36.5zM1204.5 943.8l36.5-36.4.2.2-36.4 36.5zM1197.2 936.5l36.5-36.5.3.3-36.5 36.5z"/><path class="cls-5" d="M1193.6 1005.4L1230 969l.4.2-36.5 36.5zM1186.4 998.2l36.5-36.5v.3l-36.3 36.5zM1179 991l36.6-36.6.3.3-36.6 36.5zM1172 983.7l36.4-36.5.2.3L1172 984zM1164.6 976.4L1201 940l.4.2-36.5 36.5zM1190 1001.8l36.4-36.5.3.3-36.5 36.5zM1182.7 994.5l36.5-36.5.3.3-36.5 36.5zM1175.5 987.3l36.4-36.5.2.3-36.5 36.6zM1168.2 980l36.5-36.5.3.3-36.5 36.5zM1161 972.8l36.4-36.5.3.3-36.5 36.5z"/></g><g class="cls-50"><path class="cls-5" d="M1302.5 969.2l36.4-36.5.2.3-36.5 36.4zM1295 962l36.6-36.6.3.3-36.6 36.5zM1288 954.7l36.4-36.5.3.3-36.5 36.4zM1280.6 947.4L1317 911l.4.2-36.5 36.5zM1273.4 940l36.5-36.4.2.3-36.5 36.4zM1298.7 965.5l36.5-36.5.3.3-36.5 36.5zM1291.5 958.3l36.5-36.5.3.3-36.5 36.6zM1284.2 951l36.5-36.5.3.3-36.5 36.5zM1277 943.8l36.5-36.5.3.3-36.5 36.5zM1269.7 936.5l36.5-36.5.3.3-36.5 36.5z"/><path class="cls-5" d="M1266 1005.4l36.6-36.5.3.2-36.6 36.5zM1259 998.2l36.4-36.5.2.3-36.4 36.5zM1251.6 991l36.5-36.6.4.3-36.5 36.5zM1244.4 983.7l36.5-36.5v.3l-36.3 36.5zM1237 976.4l36.6-36.5.3.2-36.6 36.5zM1262.5 1001.8l36.5-36.5.3.3-36.5 36.5zM1255.2 994.5l36.5-36.5.3.3-36.5 36.5zM1248 987.3l36.5-36.5.3.3-36.5 36.6zM1240.7 980l36.5-36.5.3.3-36.5 36.5zM1233.5 972.8l36.5-36.5.3.3-36.5 36.5z"/><path class="cls-5" d="M1222.6 1034.4L1259 998l.4.2-36.5 36.5zM1215.4 1027.2l36.5-36.5v.3l-36.4 36.5zM1208 1020l36.6-36.6.3.3-36.6 36.5zM1201 1012.7l36.4-36.5.2.3-36.4 36.5zM1219 1030.8l36.4-36.4.3.2-36.5 36.5zM1211.7 1023.5l36.5-36.5.3.3-36.5 36.5zM1204.5 1016.3L1241 980h.2l-36.5 36.6zM1197.2 1009l36.5-36.5.3.3-36.5 36.5z"/></g><g class="cls-51"><path class="cls-5" d="M1338.6 1005.4L1375 969l.4.2-36.5 36.5zM1331.5 998.2l36.4-36.5.2.3-36.5 36.5zM1324 991l36.6-36.6.3.3-36.6 36.5zM1317 983.7l36.4-36.5.3.3-36.5 36.4zM1309.6 976.4L1346 940l.4.2-36.5 36.5zM1335 1001.8l36.5-36.5.3.3-36.5 36.5zM1327.7 994.5l36.5-36.4.3.3-36.5 36.5zM1320.5 987.3l36.5-36.5.3.3-36.5 36.6zM1313.2 980l36.5-36.4.3.2-36.5 36.5zM1306 972.8l36.5-36.5.3.3-36.5 36.5z"/><path class="cls-5" d="M1295 1034.4l36.6-36.5.3.2-36.6 36.5zM1288 1027.2l36.4-36.5.3.3-36.5 36.4zM1280.6 1020l36.5-36.6.4.3-36.5 36.5zM1273.4 1012.7l36.5-36.5.2.3-36.5 36.4zM1291.5 1030.8l36.5-36.5.3.3-36.5 36.5zM1284.2 1023.5l36.5-36.4.3.3-36.5 36.5zM1277 1016.3l36.5-36.5.3.3-36.5 36.6zM1269.7 1009l36.5-36.5.3.3-36.5 36.5z"/></g><g class="cls-52"><path class="cls-5" d="M1367.6 1034.4L1404 998l.4.2-36.5 36.5zM1360.4 1027.2l36.5-36.5.2.3-36.5 36.5zM1353 1020l36.6-36.6.3.3-36.6 36.5zM1346 1012.7l36.4-36.5.3.3-36.5 36.5zM1364 1030.8l36.5-36.5.3.3-36.5 36.5zM1356.7 1023.6l36.5-36.5.3.4-36.5 36.4zM1349.5 1016.3l36.5-36.5.3.3-36.5 36.6zM1342.2 1009l36.5-36.4.3.2-36.5 36.5z"/></g><g class="cls-53"><path class="cls-5" d="M1230 969.2l36.4-36.5.2.3-36.4 36.5zM1222.6 962l36.5-36.6.4.3-36.5 36.5zM1215.4 954.7l36.5-36.5v.3l-36.3 36.5zM1208 947.4l36.6-36.5.3.2-36.6 36.5zM1200.8 940l36.5-36.3.3.2-36.5 36.4zM1226.2 965.5l36.5-36.5.3.3-36.5 36.5zM1219 958.3l36.5-36.4h.2l-36.4 36.6zM1211.7 951l36.5-36.5.3.3-36.5 36.5zM1204.5 943.8l36.5-36.4.2.2-36.4 36.5zM1197.2 936.5l36.5-36.5.3.3-36.5 36.5z"/><path class="cls-5" d="M1193.6 1005.4L1230 969l.4.2-36.5 36.5zM1186.4 998.2l36.5-36.5v.3l-36.3 36.5zM1179 991l36.6-36.6.3.3-36.6 36.5zM1172 983.7l36.4-36.5.2.3L1172 984zM1164.6 976.4L1201 940l.4.2-36.5 36.5zM1190 1001.8l36.4-36.5.3.3-36.5 36.5zM1182.7 994.5l36.5-36.5.3.3-36.5 36.5zM1175.5 987.3l36.4-36.5.2.3-36.5 36.6zM1168.2 980l36.5-36.5.3.3-36.5 36.5zM1161 972.8l36.4-36.5.3.3-36.5 36.5z"/><path class="cls-5" d="M1150 1034.4l36.6-36.5.3.2-36.6 36.5zM1143 1027.2l36.3-36.5.3.3-36.5 36.5zM1135.6 1020l36.5-36.6.4.3-36.5 36.5zM1128.4 1012.7l36.4-36.5.3.3-36.4 36.5zM1146.5 1030.8l36.4-36.5.2.3-36.5 36.5zM1139.2 1023.5l36.5-36.5.3.3-36.5 36.5zM1132 1016.3l36.4-36.5.3.3-36.5 36.6zM1124.7 1009l36.5-36.5.3.3-36.5 36.5z"/></g><g class="cls-54"><path class="cls-5" d="M1266 1005.4l36.6-36.5.3.2-36.6 36.5zM1259 998.2l36.4-36.5.2.3-36.4 36.5zM1251.6 991l36.5-36.6.4.3-36.5 36.5zM1244.4 983.7l36.5-36.5v.3l-36.3 36.5zM1237 976.4l36.6-36.5.3.2-36.6 36.5zM1262.5 1001.8l36.5-36.5.3.3-36.5 36.5zM1255.2 994.5l36.5-36.5.3.3-36.5 36.5zM1248 987.3l36.5-36.5.3.3-36.5 36.6zM1240.7 980l36.5-36.5.3.3-36.5 36.5zM1233.5 972.8l36.5-36.5.3.3-36.5 36.5z"/><path class="cls-5" d="M1222.6 1034.4L1259 998l.4.2-36.5 36.5zM1215.4 1027.2l36.5-36.5v.3l-36.4 36.5zM1208 1020l36.6-36.6.3.3-36.6 36.5zM1201 1012.7l36.4-36.5.2.3-36.4 36.5zM1219 1030.8l36.4-36.4.3.2-36.5 36.5zM1211.7 1023.5l36.5-36.5.3.3-36.5 36.5zM1204.5 1016.3L1241 980h.2l-36.5 36.6zM1197.2 1009l36.5-36.5.3.3-36.5 36.5z"/></g><g class="cls-55"><path class="cls-5" d="M1295 1034.4l36.6-36.5.3.2-36.6 36.5zM1288 1027.2l36.4-36.5.3.3-36.5 36.4zM1280.6 1020l36.5-36.6.4.3-36.5 36.5zM1273.4 1012.7l36.5-36.5.2.3-36.5 36.4zM1291.5 1030.8l36.5-36.5.3.3-36.5 36.5zM1284.2 1023.5l36.5-36.4.3.3-36.5 36.5zM1277 1016.3l36.5-36.5.3.3-36.5 36.6zM1269.7 1009l36.5-36.5.3.3-36.5 36.5z"/></g><g class="cls-56"><path class="cls-5" d="M1193.6 1005.4L1230 969l.4.2-36.5 36.5zM1186.4 998.2l36.5-36.5v.3l-36.3 36.5zM1179 991l36.6-36.6.3.3-36.6 36.5zM1172 983.7l36.4-36.5.2.3L1172 984zM1164.6 976.4L1201 940l.4.2-36.5 36.5zM1190 1001.8l36.4-36.5.3.3-36.5 36.5zM1182.7 994.5l36.5-36.5.3.3-36.5 36.5zM1175.5 987.3l36.4-36.5.2.3-36.5 36.6zM1168.2 980l36.5-36.5.3.3-36.5 36.5zM1161 972.8l36.4-36.5.3.3-36.5 36.5z"/><path class="cls-5" d="M1150 1034.4l36.6-36.5.3.2-36.6 36.5zM1143 1027.2l36.3-36.5.3.3-36.5 36.5zM1135.6 1020l36.5-36.6.4.3-36.5 36.5zM1128.4 1012.7l36.4-36.5.3.3-36.4 36.5zM1146.5 1030.8l36.4-36.5.2.3-36.5 36.5zM1139.2 1023.5l36.5-36.5.3.3-36.5 36.5zM1132 1016.3l36.4-36.5.3.3-36.5 36.6zM1124.7 1009l36.5-36.5.3.3-36.5 36.5z"/></g><g class="cls-57"><path class="cls-5" d="M1222.6 1034.4L1259 998l.4.2-36.5 36.5zM1215.4 1027.2l36.5-36.5v.3l-36.4 36.5zM1208 1020l36.6-36.6.3.3-36.6 36.5zM1201 1012.7l36.4-36.5.2.3-36.4 36.5zM1219 1030.8l36.4-36.4.3.2-36.5 36.5zM1211.7 1023.5l36.5-36.5.3.3-36.5 36.5zM1204.5 1016.3L1241 980h.2l-36.5 36.6zM1197.2 1009l36.5-36.5.3.3-36.5 36.5z"/></g></g></g></g><path class="cls-58" d="M634.6 567a100 100 0 1 0-100-100 100 100 0 0 0 100 100zm0-122.4A22.4 22.4 0 1 1 612 467a22.5 22.5 0 0 1 22.6-22.4zM209 333.8h118c64 0 95.3 22.6 95.3 76.7 0 31.3-12.8 46.8-35 58v1l46.4 97.4h-90l-34-75.8h-11.8V567h-89V333.7zm104 108c16 0 23-9.4 23-26.6 0-16-7-24.5-23.7-24.5h-15.8v51H313zM442.2 450.4l78.4-42.2V567H442V450.3zM750 333.8h118c64 0 95.2 22.6 95.2 76.7 0 31.3-12.8 46.8-35 58v1l46.4 97.4h-90l-34-75.8h-12V567H750V333.7zm104 108c16 0 22.8-9.4 22.8-26.6 0-16-6.7-24.5-23.5-24.5h-16v51H854z"/><circle class="cls-58" cx="481.4" cy="373" r="39.2"/><path class="cls-58" d="M1177.7 384.2H1101V471c0 12.4-10.7 22.5-23 22.5s-23-10-23-22.5v-87.8l-77 39V471a100 100 0 0 0 100 100c55 0 99.6-43.8 99.6-99zM1296 384.2h-99v187h79V476c1-9 11.4-15.4 21.4-15.4A22.6 22.6 0 0 1 1320 483v88h76v-88c0-55-46-98.8-100-98.8z"/><g><path class="cls-10" d="M629.6 562a100 100 0 1 0-100-100 100 100 0 0 0 100 100zm0-122.4A22.4 22.4 0 1 1 607 462a22.5 22.5 0 0 1 22.6-22.4zM204 328.8h118c64 0 95.3 22.6 95.3 76.7 0 31.3-12.8 46.8-35 58v1l46.4 97.4h-90l-34-75.8h-11.8V562h-89V328.7zm104 108c16 0 23-9.4 23-26.6 0-16-7-24.5-23.7-24.5h-15.8v51H308zM437.2 445.4l78.4-42.2V562H437V445.3zM745 328.8h118c64 0 95.2 22.6 95.2 76.7 0 31.3-12.8 46.8-35 58v1l46.4 97.4h-90l-34-75.8h-12V562H745V328.7zm104 108c16 0 22.8-9.4 22.8-26.6 0-16-6.7-24.5-23.5-24.5h-16v51H849z"/><circle class="cls-10" cx="476.4" cy="368" r="39.2"/><path class="cls-10" d="M1172.7 379.2H1096V466c0 12.4-10.7 22.5-23 22.5s-23-10-23-22.5v-87.8l-77 39V466a100 100 0 0 0 100 100c55 0 99.6-43.8 99.6-99zM1291 379.2h-99v187h79V471c1-9 11.4-15.4 21.4-15.4A22.6 22.6 0 0 1 1315 478v88h76v-88c0-55-46-98.8-100-98.8z"/></g></svg>